<svg id="レイヤー_1" data-name="レイヤー 1" xmlns="http://www.w3.org/2000/svg" viewBox="0 0 40.15 48.46"><title>splatoon</title><g id="g432"><path id="path434" d="M48.9,261.87a0.55,0.55,0,0,0-.48.92,0.48,0.48,0,0,0,.74-0.08c0.25-.36.12-0.84-0.25-0.84m3.84-4.48c-0.3.2-.17,0.74,0.12,0.74s0.36-.44.29-0.66a0.27,0.27,0,0,0-.41-0.08m-24.52-6.83a0.94,0.94,0,0,0,.83,1.67,0.94,0.94,0,0,0-.83-1.67m0.45-15.11a1.24,1.24,0,0,0-1.2-1.29,1.22,1.22,0,0,0-1.43,1.25,1.25,1.25,0,0,0,1.21,1.05,1.37,1.37,0,0,0,1.42-1m6.65,19.16a0.6,0.6,0,0,0-.14.76,0.72,0.72,0,0,0,.77.36,0.53,0.53,0,0,0,.24-0.78,0.6,0.6,0,0,0-.87-0.35m-2.5-2.71a0.6,0.6,0,0,0-.21.75,0.64,0.64,0,0,0,.8.26,0.65,0.65,0,0,0,.32-0.82,0.6,0.6,0,0,0-.91-0.2m23.38,2.77a0.63,0.63,0,0,0,.56,1.12,0.63,0.63,0,0,0-.56-1.12m5.21-22.09a0.74,0.74,0,0,0-.25.93,0.76,0.76,0,0,0,1.36-.67,0.73,0.73,0,0,0-1.11-.26m3.19,10.89a0.45,0.45,0,0,0-.68-0.15,0.44,0.44,0,0,0-.16.56,0.47,0.47,0,0,0,.84-0.42m-4-6.27a0.5,0.5,0,0,0-.18,1A0.5,0.5,0,0,0,61,237.8a0.51,0.51,0,0,0-.37-0.59M58.71,254.7a0.47,0.47,0,0,0,.42.84,0.46,0.46,0,0,0,.19-0.6,0.48,0.48,0,0,0-.61-0.24m-0.12-6.06a0.6,0.6,0,0,0-.81-0.24,0.56,0.56,0,1,0,.48,1,0.66,0.66,0,0,0,.34-0.77m1.19-7.47a3.08,3.08,0,0,0-.92.23l-0.34.12a1.56,1.56,0,0,1-.46.08,0.76,0.76,0,0,1-.57-0.23,2.29,2.29,0,0,1-.25-1.65,5.3,5.3,0,0,0,0-.93,3.62,3.62,0,0,0-.71-1.79c-0.09-.13-0.18-0.26-0.26-0.41a0.91,0.91,0,0,1-.13-0.7,1.37,1.37,0,0,1,.79-0.72c0.44-.23.5-0.31,0.46-0.43-0.1-.3-0.21-0.3-0.29-0.3a2.13,2.13,0,0,0-.59.15,2.74,2.74,0,0,1-.89.21,1.09,1.09,0,0,1-.55-0.14,2.5,2.5,0,0,1-1.27-1.52A2.18,2.18,0,0,0,53,232a3.33,3.33,0,0,0-1.43-.68,0.86,0.86,0,0,1-.78-0.57,1.22,1.22,0,0,1,.72-1.32,1,1,0,0,0,.54-0.61,0.82,0.82,0,0,0-.17-0.64,0.59,0.59,0,0,0-.45-0.18,0.83,0.83,0,0,0-.83.69h0a1.68,1.68,0,0,1-1.61,1.5,1.7,1.7,0,0,1-.9-0.27,3.68,3.68,0,0,0-1.94-.59,2.32,2.32,0,0,0-.88.16,3.48,3.48,0,0,1-1.24.3,0.81,0.81,0,0,1-.68-0.27,0.64,0.64,0,0,1-.09-0.6,1,1,0,0,0-.07-0.83,0.57,0.57,0,0,0-.45-0.22,0.38,0.38,0,0,0-.3.12,0.39,0.39,0,0,0,0,.34,1.52,1.52,0,0,1,0,1.28,2.32,2.32,0,0,1-1.7.83l-0.27,0a1.28,1.28,0,0,1-1.16-1.09,1.71,1.71,0,0,0-1.57-1.36H37.45a1.89,1.89,0,0,0-1.71.94,1.44,1.44,0,0,0,.26,1.54,2.54,2.54,0,0,0,.56.44,1.42,1.42,0,0,1,.79.9,1.27,1.27,0,0,1-.38,1,1.67,1.67,0,0,1-1.23.73,1.5,1.5,0,0,1-1.15-.68,0.53,0.53,0,0,0-.43-0.21,0.64,0.64,0,0,0-.5.25,0.76,0.76,0,0,0-.11.69,1.26,1.26,0,0,0,.57.65,1.2,1.2,0,0,1,.61.76,1.12,1.12,0,0,1-.31.87,2,2,0,0,1-1.47,1,1.76,1.76,0,0,1-1.13-.6,1.74,1.74,0,0,0-.9-0.54H30.74a0.71,0.71,0,0,0-.57.2,1,1,0,0,0-.13.83A1.29,1.29,0,0,0,31.52,238a1.45,1.45,0,0,1,1.19.42,1.52,1.52,0,0,1-.06,1.3,7.2,7.2,0,0,0-.37,2,6.15,6.15,0,0,0,.44,2.47,1.52,1.52,0,0,1-.16,1.81,2.4,2.4,0,0,1-1.5.86,2.06,2.06,0,0,0-1.27.7,1.11,1.11,0,0,0-.11,1.06,1,1,0,0,0,.81.58h0.14a3.13,3.13,0,0,0,1.59-.71,2.73,2.73,0,0,1,1.37-.63h0.07a1,1,0,0,1,.87,1.06,2.46,2.46,0,0,0,.63,1.3,2.86,2.86,0,0,1,.5.6,0.83,0.83,0,0,1,.12.5,1.12,1.12,0,0,1-.68.76l-0.39.26a0.65,0.65,0,0,0-.32.69,0.35,0.35,0,0,0,.36.23,0.94,0.94,0,0,0,.47-0.15,3.28,3.28,0,0,0,.8-0.71,0.92,0.92,0,0,1,.42-0.38c0.22,0.26.44,0.52,0.65,0.8a8.37,8.37,0,0,1,.65.92c1.52,2.37,1.81,5.71,1.91,8.43,0.1,0.49.18,9.39,1,10.87a0.43,0.43,0,0,0,.81-0.1c0.1-.48.6-7.21,1-7.5,1.85-1.36.73-7.48,2.09-9.23a0.92,0.92,0,0,1,1.56-.1,7.8,7.8,0,0,1,.69,3.56c0,0.32,0,.58,0,1a3,3,0,0,0,.06,1,0.47,0.47,0,0,0,.74.14c0.65-.82-0.29-1.85-0.1-2.82a0.63,0.63,0,0,1,.49-0.49,1.33,1.33,0,0,1,1.26,1.17,0.93,0.93,0,0,0,1.53.16,3.86,3.86,0,0,0,.51-0.68,4.33,4.33,0,0,0,.4-2.78,5.29,5.29,0,0,0-.69-1.07,3.89,3.89,0,0,1,1.78-3,0.83,0.83,0,0,1,1,.5,2,2,0,0,0,1.63.91,1.37,1.37,0,0,0,.58-0.12,1.59,1.59,0,0,0,.89-1A0.77,0.77,0,0,0,56.5,252a1.3,1.3,0,0,0-.83-0.19,1.62,1.62,0,0,1-1.48-.62,0.78,0.78,0,0,1,.1-1.16,4.47,4.47,0,0,0,1.06-1.89,1.62,1.62,0,0,1,1.74-1c0.69,0,1.09-.09,1.27-0.63a1.45,1.45,0,0,0-.7-1.65,1.17,1.17,0,0,1-.61-1.16,1.24,1.24,0,0,1,1.33-1.11,5.29,5.29,0,0,1,.76.07l0.27,0a1.18,1.18,0,0,0,1-.38,0.69,0.69,0,0,0,0-.67,0.59,0.59,0,0,0-.59-0.48m-0.35-5.77a0.59,0.59,0,0,0,.76.14,0.66,0.66,0,0,0,.33-0.77,0.6,0.6,0,0,0-.81-0.24,0.58,0.58,0,0,0-.28.87M40.2,226.62a0.49,0.49,0,0,0,.53-0.38,0.5,0.5,0,0,0-.36-0.59,0.5,0.5,0,0,0-.17,1m9.16,0.88a1.24,1.24,0,0,0,1.29-1.2,1.22,1.22,0,0,0-1.25-1.43,1.24,1.24,0,0,0-1.06,1.21,1.38,1.38,0,0,0,1,1.42M39,225.57a0.36,0.36,0,0,0,.39-0.28,0.36,0.36,0,0,0-.26-0.43,0.34,0.34,0,0,0-.4.35,0.35,0.35,0,0,0,.28.35m14.47,1.18a0.6,0.6,0,0,0,.23-0.81,0.58,0.58,0,0,0-.86-0.28,0.59,0.59,0,0,0-.14.76,0.66,0.66,0,0,0,.77.33m5.46,10a0.34,0.34,0,0,0,.28.35,0.37,0.37,0,0,0,.39-0.27,0.37,0.37,0,0,0-.27-0.43,0.35,0.35,0,0,0-.4.35M59.08,233a0.86,0.86,0,0,0,.25-1.16,0.83,0.83,0,1,0-1.37.92,0.88,0.88,0,0,0,1.12.24m-25.27-2.67a0.48,0.48,0,0,0,.25-0.62,0.45,0.45,0,0,0-.69-0.15,0.46,0.46,0,0,0-.16.57,0.48,0.48,0,0,0,.6.2M26,249.14a0.6,0.6,0,0,0-.14.76,0.66,0.66,0,0,0,.76.33,0.6,0.6,0,0,0,.24-0.81,0.58,0.58,0,0,0-.86-0.28m-1.1-4.27a0.37,0.37,0,0,0-.42.26,0.36,0.36,0,0,0,.7.13,0.36,0.36,0,0,0-.28-0.39m11.84-18a0.76,0.76,0,0,0-.33-1.48,0.76,0.76,0,0,0,.33,1.48m-5.85,7.72a0.48,0.48,0,0,0,.2-0.6,0.49,0.49,0,0,0-.62-0.25,0.47,0.47,0,0,0,.42.85m-2.8,13.62a0.6,0.6,0,0,0,.76.13,0.65,0.65,0,0,0,.33-0.77,0.59,0.59,0,0,0-.81-0.24,0.59,0.59,0,0,0-.28.87m-1.42-3.44a0.51,0.51,0,0,0-.59.37,0.5,0.5,0,0,0,1,.17,0.5,0.5,0,0,0-.38-0.54" transform="translate(-24.5 -224.85)"/></g></svg>