<svg id="レイヤー_1" data-name="レイヤー 1" xmlns="http://www.w3.org/2000/svg" viewBox="0 0 51.75 34.44"><title>10</title><g id="g436"><path id="path438" d="M35.59,461.76a0.65,0.65,0,1,0,.83,0,0.65,0.65,0,0,0-.83,0m-9.16-6.5a0.34,0.34,0,0,0,.23-0.47,0.35,0.35,0,0,0-.39-0.21A0.37,0.37,0,0,0,26,455a0.36,0.36,0,0,0,.41.28M29.11,458a0.88,0.88,0,0,0-1.12.22,0.85,0.85,0,0,0,.23,1.16,0.81,0.81,0,0,0,1.2-.36,0.82,0.82,0,0,0-.31-1m-2.37-1.79a0.6,0.6,0,0,0-.75.17,0.66,0.66,0,0,0,0,.83,0.59,0.59,0,0,0,.83-0.11,0.58,0.58,0,0,0-.09-0.9m-1.45-1.85a0.47,0.47,0,0,0-.54-0.3,0.49,0.49,0,0,0,.23,1,0.47,0.47,0,0,0,.31-0.66m-0.41,4.34a0.77,0.77,0,0,0,0,1.07,0.73,0.73,0,0,0,1.11-.21,0.74,0.74,0,0,0-.14-0.95,0.79,0.79,0,0,0-1,.09m25.88-3.63a0.75,0.75,0,0,0,.89,1.22,0.75,0.75,0,0,0-.89-1.22m11.19-4.47a1.71,1.71,0,0,0-.42-1.49,1.17,1.17,0,0,0-1.58-.15,1.75,1.75,0,0,0-.47,2.08,1.27,1.27,0,0,0,1.22.71,1.47,1.47,0,0,0,1.25-1.15M39,459.46a1.23,1.23,0,0,0-.7,1.6,1.21,1.21,0,0,0,1.7.81,1.23,1.23,0,0,0,.48-1.52,1.37,1.37,0,0,0-1.49-.89m31-15.95a4.83,4.83,0,0,0-1.87-2.38,3.31,3.31,0,0,0-3.09-.23c-1.41.52-1.33,1.53-1.83,1.08s0.35-1.36-.56-3.12a3.43,3.43,0,0,0-2.4-1.87,4.54,4.54,0,0,0-4.77,2,4.38,4.38,0,0,0-.67,2.62,3.41,3.41,0,0,0-1.17-.94c-0.52-.21.56-0.51,0.16-1.05a1,1,0,0,0-1.34-.27c-0.46.41,0.46,0.8-.24,0.92a2.19,2.19,0,0,0-1.2.53c-0.63.55-.56,1-1,0.94s-0.24-.57-0.75-0.86a5.82,5.82,0,0,0-.32-1.09,6,6,0,0,0-1.37-2.08A1.49,1.49,0,0,1,47,436a2.38,2.38,0,0,1,1-1.38,2,2,0,0,0,.88-1.14,1.1,1.1,0,0,0-.31-1,1,1,0,0,0-1-.21l-0.14,0a3.1,3.1,0,0,0-1.16,1.27,2.74,2.74,0,0,1-1,1.11l-0.06,0a1.05,1.05,0,0,1-1.22-.62,2.41,2.41,0,0,0-1.08-.94,1.47,1.47,0,0,1-1-.76,1.13,1.13,0,0,1,.32-1c0.08-.12.17-0.25,0.25-0.39a0.65,0.65,0,0,0,0-.76,0.34,0.34,0,0,0-.42-0.07,1.75,1.75,0,0,0-.8,1.33,1,1,0,0,1-.44.74,1,1,0,0,1-.73-0.1,5.72,5.72,0,0,0-2.72-.36c-0.6,0-.71-0.57-0.79-1.07a1.55,1.55,0,0,0-.47-1.11,0.65,0.65,0,0,0-.58,0,0.88,0.88,0,0,0-.25.15,0.55,0.55,0,0,0-.19.36,0.36,0.36,0,0,0,.13.24l0.07,0.05a1.07,1.07,0,0,1,.55,1.37,0.6,0.6,0,0,1-.3.25,4.21,4.21,0,0,1-1,.21l-0.2,0a7.37,7.37,0,0,0-1.47.51l-0.88.39-0.68.31a0.71,0.71,0,0,1-.62,0,1.33,1.33,0,0,1-.53-0.95,1.31,1.31,0,0,0-.37-0.8,0.81,0.81,0,0,0-.58.08l0,0a0.36,0.36,0,0,0-.21.18,1.87,1.87,0,0,0,.48.94c0.36,0.48.8,1.09,0.29,1.47a1.36,1.36,0,0,1-.25.15,0.85,0.85,0,0,1-1.05-.52l-0.17-.23a1.6,1.6,0,0,0-1.8-.65,1.21,1.21,0,0,0-.32.2,1.38,1.38,0,0,0-.46,1,1.21,1.21,0,0,0,.29.91,1.41,1.41,0,0,0,.52.27,0.85,0.85,0,0,1,.76,1.07,2.52,2.52,0,0,1-1.1,1.56,1.07,1.07,0,0,1-1.11-.17,2,2,0,0,0-1.84-.18,1.33,1.33,0,0,0-.48.34,1.59,1.59,0,0,0-.42,1.23,0.73,0.73,0,0,0,.47.53,1.28,1.28,0,0,0,.83-0.15,1.61,1.61,0,0,1,1.59,0,0.78,0.78,0,0,1,.36,1.1,4.44,4.44,0,0,0-.21,2.14,1.62,1.62,0,0,1-1.2,1.56c-0.61.31-1,.52-0.9,1.07a1.44,1.44,0,0,0,1.29,1.23,1.17,1.17,0,0,1,1,.82,1.24,1.24,0,0,1-.78,1.54,5.05,5.05,0,0,1-.72.24l-0.26.09a1.17,1.17,0,0,0-.73.72,0.69,0.69,0,0,0,.26.61,0.59,0.59,0,0,0,.73.2,3.14,3.14,0,0,0,.75-0.58l0.26-.24a1.47,1.47,0,0,1,.39-0.26,0.73,0.73,0,0,1,.61,0,2.27,2.27,0,0,1,.89,1.4,4.91,4.91,0,0,0,.36.85,3.65,3.65,0,0,0,1.35,1.35c0.13,0.08.27,0.16,0.4,0.26a0.89,0.89,0,0,1,.39.59,1.34,1.34,0,0,1-.42,1c-0.31.39-.33,0.48-0.25,0.57s0.31,0.19.39,0.16a2.05,2.05,0,0,0,.47-0.37,2.77,2.77,0,0,1,.73-0.54,1.05,1.05,0,0,1,.55-0.09,2.49,2.49,0,0,1,1.75.89,2.14,2.14,0,0,0,1.17.71,3.31,3.31,0,0,0,1.57,0,0.84,0.84,0,0,1,.93.22,1.21,1.21,0,0,1-.13,1.48,1,1,0,0,0-.26.77,0.84,0.84,0,0,0,.4.51,0.62,0.62,0,0,0,.48,0,0.83,0.83,0,0,0,.48-1h0a1.66,1.66,0,0,1,.87-2,1.68,1.68,0,0,1,.93-0.11,3.65,3.65,0,0,0,2-.23,2.34,2.34,0,0,0,.73-0.49,3.51,3.51,0,0,1,1-.77,0.8,0.8,0,0,1,.72,0,0.64,0.64,0,0,1,.32.51,0.93,0.93,0,0,0,.4.72,0.56,0.56,0,0,0,.5,0,0.37,0.37,0,0,0,.23-0.23,0.4,0.4,0,0,0-.12-0.32,1.5,1.5,0,0,1-.48-1.18,2.3,2.3,0,0,1,1.22-1.42,1.25,1.25,0,0,1,.24-0.13,1.27,1.27,0,0,1,1.48.53,1.71,1.71,0,0,0,2,.62l0.23-.09a1.86,1.86,0,0,0,1.17-1.53,1.41,1.41,0,0,0-.85-1.3,2.29,2.29,0,0,0-.68-0.18,1.42,1.42,0,0,1-1.07-.51,1.26,1.26,0,0,1-.05-1.06,1.66,1.66,0,0,1,.84-1.16,1.5,1.5,0,0,1,1.32.16,0.52,0.52,0,0,0,.47,0,0.64,0.64,0,0,0,.36-0.43A0.76,0.76,0,0,0,51,447.6h0l0.11,0a0.47,0.47,0,0,0,.57-0.31,0.61,0.61,0,0,0-.11-0.63,0.57,0.57,0,0,0-.67-0.16,0.58,0.58,0,0,0-.24.66,0.63,0.63,0,0,0,.12.21,2.14,2.14,0,0,0-.55-0.17,1.19,1.19,0,0,1-.85-0.45,1.15,1.15,0,0,1-.06-0.92c0-.09,0-0.18.08-0.27a3,3,0,0,0,.4-0.35,1.72,1.72,0,0,0,.45-0.87h0a1.07,1.07,0,0,1,.43-0.08,3.07,3.07,0,0,0,1,1.43,2,2,0,0,0,1.31.43,0.36,0.36,0,0,0,.14.24,0.49,0.49,0,0,0,.66,0,0.4,0.4,0,0,0,.09-0.4,2.85,2.85,0,0,0,1.38-1.3,1.29,1.29,0,0,0,.8.15c0.57,0.67-1.22.33-1,1.42a1.58,1.58,0,0,0,1.77,1.38c1-.28-0.1-1.51,1-1.18a3.58,3.58,0,0,0,2.15.1c1.34-.35,1.56-1.05,2.19-0.64s-0.46,1.44,1.26,2.55c1.22,0.79-1.34,1.05-.33,2.77a2.86,2.86,0,0,0,4.27.71c1.64-1.45-1-2.5,0-2.88A4.39,4.39,0,0,0,70,447.2a4.3,4.3,0,0,0,0-3.68m-7,9.31a1.1,1.1,0,0,0-1.22-.12,0.9,0.9,0,0,0-.33,1.25,1.1,1.1,0,0,0,.95.45,1,1,0,0,0,.94-0.67,1,1,0,0,0-.34-0.91m-11-2.11a0.49,0.49,0,0,0,0,.66,0.47,0.47,0,0,0,.6-0.72,0.48,0.48,0,0,0-.63.06m-2.81,6.42a0.35,0.35,0,0,0,.16.69,0.35,0.35,0,0,0-.16-0.69M23,442.84a0.59,0.59,0,0,0-.75.18,0.65,0.65,0,0,0,0,.83,0.59,0.59,0,0,0,.83-0.11,0.58,0.58,0,0,0-.09-0.9m24.7,13.8a0.51,0.51,0,0,0-.34.57,0.5,0.5,0,0,0,.56.39,0.46,0.46,0,0,0,.32-0.66,0.47,0.47,0,0,0-.54-0.3m4-26.09a0.59,0.59,0,0,0-.17-0.75,0.66,0.66,0,0,0-.84,0,0.63,0.63,0,0,0,1,.75m-2.27,2.71a0.59,0.59,0,0,0,.83-0.11,0.58,0.58,0,0,0-.09-0.9,0.59,0.59,0,0,0-.74.18,0.66,0.66,0,0,0,0,.83m-0.09,4.58a0.49,0.49,0,0,0-.56.08,0.59,0.59,0,0,0-.17.49,0.39,0.39,0,0,0,.41.34,0.58,0.58,0,0,0,.52-0.48,0.42,0.42,0,0,0-.2-0.43m3.49-3a0.5,0.5,0,0,0,.4-0.57,0.47,0.47,0,0,0-.66-0.32,0.48,0.48,0,0,0-.3.54,0.5,0.5,0,0,0,.56.34m-31,1.69a0.61,0.61,0,0,0-.77.1,0.63,0.63,0,0,0,.07.83,0.64,0.64,0,0,0,.87,0,0.59,0.59,0,0,0-.17-0.91m45.52,1.08a0.44,0.44,0,0,0,.29-0.34,0.5,0.5,0,0,0-.22-0.51,0.41,0.41,0,0,0-.57.15,0.5,0.5,0,0,0,0,.47,0.47,0.47,0,0,0,.48.23m-3,.6a1,1,0,0,0,.83-0.8,1.16,1.16,0,0,0-.34-1,0.77,0.77,0,0,0-1.06,0,1,1,0,0,0-.31,1,0.94,0.94,0,0,0,.87.73m-10-4.18a0.36,0.36,0,0,0,.28-0.41,0.33,0.33,0,0,0-.47-0.22,0.34,0.34,0,0,0-.22.39,0.36,0.36,0,0,0,.4.25m-6.55-3.84a1,1,0,0,0,1.3,0,0.88,0.88,0,0,0-.27-1.35,0.9,0.9,0,0,0-1.15.16,0.94,0.94,0,0,0,.12,1.24m-23.72,3.46a0.3,0.3,0,0,0,0-.46,0.3,0.3,0,0,0-.38.09,0.32,0.32,0,0,0,0,.42,0.29,0.29,0,0,0,.42-0.05m-4.52,4.08a0.45,0.45,0,0,0-.58.08,0.47,0.47,0,0,0,.72.6,0.45,0.45,0,0,0-.14-0.68m-0.83,12.58a0.48,0.48,0,0,0,0,.65,0.44,0.44,0,0,0,.68-0.13,0.45,0.45,0,0,0-.08-0.58,0.48,0.48,0,0,0-.62.06m25.64-19.57a0.6,0.6,0,0,0-.11-0.77,0.64,0.64,0,0,0-.83.08,0.65,0.65,0,0,0,0,.87,0.59,0.59,0,0,0,.91-0.18M28,431.92a0.39,0.39,0,0,0-.11-0.5,0.43,0.43,0,0,0-.55,0,0.42,0.42,0,0,0,.67.5m13.07-2.7a0.59,0.59,0,0,0-.17-0.75,0.66,0.66,0,0,0-.83,0,0.59,0.59,0,0,0,.11.83,0.58,0.58,0,0,0,.9-0.08" transform="translate(-18.69 -428.33)"/></g></svg>