<svg id="レイヤー_1" data-name="レイヤー 1" xmlns="http://www.w3.org/2000/svg" viewBox="0 0 47.6 54.6"><title>11</title><g id="g416"><path id="path418" d="M127.08,471.39a1.21,1.21,0,0,0-1.16.69,1.48,1.48,0,0,0,.44,1.79l0.14,0.1a0.72,0.72,0,0,0,.51.16,1.07,1.07,0,0,0,.73-0.28l0.15-.11a1,1,0,0,0,.42-0.74,1.62,1.62,0,0,0-.28-1.17,1,1,0,0,0-.95-0.43m-1.18-.86a0.66,0.66,0,0,0,.79-0.76A0.75,0.75,0,0,0,126,469h-0.1a0.83,0.83,0,0,0-.75.49,0.74,0.74,0,0,0,.08.69,0.75,0.75,0,0,0,.64.33h0ZM129.38,447a0.86,0.86,0,0,0-.74-0.3,1.3,1.3,0,0,0-.9,2.16,1.22,1.22,0,0,0,.89.37h0a1.17,1.17,0,0,0,1.07-1.33,1.23,1.23,0,0,0-.33-0.9m-2.13,4.21a2.3,2.3,0,0,0-1.09.31c-1.16.63-2.09,0.65-2.7,0.08a1.32,1.32,0,0,1-.37-1.11,0.54,0.54,0,0,1,.48-0.38,0.78,0.78,0,0,0,.77-0.78,0.62,0.62,0,0,0-.65-0.54,1.41,1.41,0,0,0-.8.31,0.31,0.31,0,0,1-.19.07,0.33,0.33,0,0,1-.31-0.29,0.31,0.31,0,0,1,.31-0.27,3.07,3.07,0,0,0,2.16-1.27,0.63,0.63,0,0,0-.13-0.65,0.73,0.73,0,0,0-.56-0.3,2,2,0,0,0-1.14.67,2.77,2.77,0,0,1-.75.55,1,1,0,0,1-.33.05,0.63,0.63,0,0,1-.5-0.2,0.6,0.6,0,0,1-.06-0.55c0.26-1,2-1.84,3.09-2.36l0.63-.32a0.78,0.78,0,0,0,.54-0.88,0.84,0.84,0,0,0-.79-0.57,0.62,0.62,0,0,0-.55.31,9.34,9.34,0,0,1-3.58,2.51,0.63,0.63,0,0,1-.22,0,0.48,0.48,0,0,1-.42-0.22,0.54,0.54,0,0,1,0-.51,1.38,1.38,0,0,1,.71-0.63,1.26,1.26,0,0,0,.78-0.84,0.72,0.72,0,0,0-.1-0.64,0.79,0.79,0,0,0-.63-0.27,1.19,1.19,0,0,0-.3,0,1.16,1.16,0,0,0-.76.66,1.7,1.7,0,0,1-.46.58,0.65,0.65,0,0,1-.38.1,1.21,1.21,0,0,1-.85-0.34,0.83,0.83,0,0,1-.24-0.64c0-.85,1.54-3,2.15-3.51a1.18,1.18,0,0,0,.44-1.32,0.64,0.64,0,0,0-.58-0.48,1.5,1.5,0,0,0-1.09,1.2c-0.75,1.95-1.37,3.44-2.06,3.44a0.6,0.6,0,0,1-.29-0.08c-0.37-.2-0.34-0.51-0.16-1.21v-0.07a1,1,0,0,0-.09-0.89,0.62,0.62,0,0,0-.51-0.23,1.31,1.31,0,0,0-1,.54,1.31,1.31,0,0,1-2.16,0c-0.36-.59.12-1.75,0.47-2.59l0.05-.12a1,1,0,0,0,0-.94,0.68,0.68,0,0,0-1.05-.08,0.88,0.88,0,0,0-.2.68c0.09,1.15,0,2.38-1.18,2.78a2.26,2.26,0,0,1-.69.13,1,1,0,0,1-.82-0.34,1.05,1.05,0,0,1-.24-0.82,0.88,0.88,0,0,0-.19-0.69,6.66,6.66,0,0,0,.33-0.64,7.35,7.35,0,0,0-.55-6.27,8.21,8.21,0,0,0-3.57-3.74,5.67,5.67,0,0,0-5.31.12c-2.31,1.13-2,2.82-2.93,2.14s0.36-2.38-1.48-5.22a5.87,5.87,0,0,0-4.4-2.78,7.76,7.76,0,0,0-7.78,4.22c-2.18,4.3.67,8.71,1.82,9.78s-2,.78-1.46,2.61a2.7,2.7,0,0,0,3.25,2c1.62-.63-0.42-2.55,1.55-2.17a6.13,6.13,0,0,0,3.68-.19c2.22-.82,2.46-2.05,3.6-1.46s-0.43,2.41,2.29,4a4,4,0,0,0,.72,1.4c-0.18.27-.45,0.56-0.67,0.9a1.67,1.67,0,0,0-1.16-.65,0.93,0.93,0,0,0-.37.08,0.65,0.65,0,0,0-.45.6c0,0.4.43,1.06,1.63,1.61a2.88,2.88,0,0,0,.49,1,4.51,4.51,0,0,0,.43.51,1,1,0,0,1-.2.31,0.54,0.54,0,0,1-.37.18,0.52,0.52,0,0,1-.41-0.31l0-.09a1.65,1.65,0,0,0-1.33-1.11H95.71a1.28,1.28,0,0,0-.81.43,1.66,1.66,0,0,0-1.76.77,1.19,1.19,0,0,0,.1,1.32,1.36,1.36,0,0,0,1.55.35,1.54,1.54,0,0,0,.76-0.67,3.11,3.11,0,0,0,.69.25,0.7,0.7,0,0,1,.53.41,1.61,1.61,0,0,1-.25,1.25l0,0c-0.06.09-.13,0.2-0.21,0.31l-0.13-.06a1.58,1.58,0,0,0-1.63.18l-0.05,0a2.67,2.67,0,0,0-1.12-.49,0.4,0.4,0,0,0-.4.27,0.73,0.73,0,0,0,0,.71,1.5,1.5,0,0,0,1,.55,2,2,0,0,0,.39,1.35,2.28,2.28,0,0,0,.27.27l-0.21-.1a1.36,1.36,0,0,0-.62-0.22,0.59,0.59,0,0,0-.45.22,0.74,0.74,0,0,0-.13.8,1.24,1.24,0,0,0,1.32.54h0a0.29,0.29,0,0,1,.25.32,0.3,0.3,0,0,1-.35.32,1.28,1.28,0,0,1-.51-0.14c-0.34-.17-0.8-0.43-1.29-0.71a17.19,17.19,0,0,0-3-1.49,2.36,2.36,0,0,0-.69-0.1,1.89,1.89,0,0,0-1.93,1.3,1.33,1.33,0,0,0,1,1.64,3.41,3.41,0,0,0,.85.11,6.57,6.57,0,0,0,1.13-.12,6.39,6.39,0,0,1,1-.12,2.89,2.89,0,0,1,.84.12,0.65,0.65,0,0,1,.54.35,0.14,0.14,0,0,1-.16.09,0.7,0.7,0,0,0-.58,1.22,0.81,0.81,0,0,0,.67.29,6.31,6.31,0,0,0,1.72-.44l0.62-.21a0.54,0.54,0,0,1,.17,0,0.41,0.41,0,0,1,.39.45,0.5,0.5,0,0,1-.41.56l-1,.11H93.7l-1.63.17a2.08,2.08,0,0,0-1.58.69,0.59,0.59,0,0,0,0,.55,0.84,0.84,0,0,0,.81.53,2.23,2.23,0,0,0,1.05-.35,9.51,9.51,0,0,1,2.92-.89h0.06a1.09,1.09,0,0,1,.94,1.1,0.65,0.65,0,0,1-.42.79H95.7a3.09,3.09,0,0,1-.45,0,3.63,3.63,0,0,0-.52-0.05,1,1,0,0,0-.71.26,1,1,0,0,0-.22,1,0.79,0.79,0,0,0,.63.56,1.73,1.73,0,0,0,.35,0,1.18,1.18,0,0,0,.79-0.3,0.92,0.92,0,0,1,.54-0.24c0.36,0,.5.13,0.51,0.26a0.56,0.56,0,0,1-.61.43,2,2,0,0,0-1.59.64,0.58,0.58,0,0,0,0,.57,0.51,0.51,0,0,0,.46.31,1.78,1.78,0,0,0,.78-0.31c0.13-.07.26-0.15,0.4-0.21a0.75,0.75,0,0,1,.32-0.07,0.88,0.88,0,0,1,.78.56,0.83,0.83,0,0,1,0,.66,1.05,1.05,0,0,1-.67.5l-0.68.15a7.45,7.45,0,0,0-2.39.75,1.55,1.55,0,0,0,.72,2.95,1.9,1.9,0,0,0,1.53-.76A7.41,7.41,0,0,1,98,465.17a0.5,0.5,0,0,1,.2,0,0.92,0.92,0,0,1,.78.69,0.19,0.19,0,0,1-.12.26,1.39,1.39,0,0,0-.93.94,1,1,0,0,0,.3.89,0.84,0.84,0,0,0,.61.25,1.47,1.47,0,0,0,1.12-.61,0.5,0.5,0,0,1,.33-0.29,0.38,0.38,0,0,1,.19.33,2.88,2.88,0,0,1-.91,1.79,5.9,5.9,0,0,0-.62.86,0.85,0.85,0,0,0,0,.88,0.74,0.74,0,0,0,.61.37,0.62,0.62,0,0,0,.49-0.24,5.94,5.94,0,0,0,.92-2.14,5.2,5.2,0,0,1,.38-1.08,0.83,0.83,0,0,1,.73-0.39,0.72,0.72,0,0,1,.77.62c0.06,0.7.16,1.2,0.8,1.2l0.28,0a0.3,0.3,0,0,1,.31.11,3.68,3.68,0,0,1,.14,2.21c0,0.07,0,.17-0.07.29h0c-0.28,1.09-.4,1.89-0.08,2.3a0.62,0.62,0,0,0,.52.23h0.09a0.8,0.8,0,0,0,.62-0.3,2.71,2.71,0,0,0,0-1.93,7.53,7.53,0,0,1-.12-0.74,2.8,2.8,0,0,1,.09-1.63,0.17,0.17,0,0,1,.13-0.06,0.5,0.5,0,0,1,.4.16,1.31,1.31,0,0,1,.26,1,1.54,1.54,0,0,0,.32,1.16,0.72,0.72,0,0,0,.63.21,0.55,0.55,0,0,0,.42-0.32,1.19,1.19,0,0,0,0-1,2.82,2.82,0,0,1-.22-1.85,1.09,1.09,0,0,1,1-.7,0.86,0.86,0,0,1,.48.15,1.29,1.29,0,0,1,.45.67,1,1,0,0,0,1,.84h0a0.93,0.93,0,0,0,.94-0.65,1,1,0,0,1,.75-0.65l0.23,0c0.66,0,1.2.67,1.51,1.87,0.24,0.91.52,1.79,1.1,1.79a0.6,0.6,0,0,0,.21,0,0.76,0.76,0,0,0,.52-0.43,2.49,2.49,0,0,0-.47-1.82c-0.74-1.44-.72-2.21,0-2.77a1.23,1.23,0,0,1,.75-0.25,1.49,1.49,0,0,1,1.39,1.09,1,1,0,0,0,.93.82,0.78,0.78,0,0,0,.72-0.46,1,1,0,0,0-.33-1.06,1.82,1.82,0,0,1-.45-1.51,0.38,0.38,0,0,1,.39-0.23h0c0.77,0,1.54,1.18,2,1.95v0l0.25,0.36,0.12,0.17,0,0.05c0.64,0.93,1,1.4,1.38,1.4a0.32,0.32,0,0,0,.17-0.05,0.65,0.65,0,0,0,.28-0.5,2.33,2.33,0,0,0-1-1.76l-0.35-.33,0,0c-1.14-1.06-2.17-2.05-2.17-2.55a0.19,0.19,0,0,1,.06-0.15,0.23,0.23,0,0,1,.16-0.07,1.47,1.47,0,0,1,.81.88,1.24,1.24,0,0,0,1,.73h0.14a0.38,0.38,0,0,0,.29-0.2,0.53,0.53,0,0,0-.12-0.48c-0.13-.22-0.12-0.26-0.09-0.28a0.26,0.26,0,0,1,.16-0.05,2.94,2.94,0,0,1,1.31,1l0.08,0.08,0.28,0.31a2.15,2.15,0,0,0,1.21.92,0.53,0.53,0,0,0,.18,0,0.68,0.68,0,0,0,.49-0.57,2.14,2.14,0,0,0-1.25-1.62c-1.26-.81-2.61-2.27-2.62-3.17a1.8,1.8,0,0,1,.27-1.05,1.07,1.07,0,0,1,.92-0.42h0.18a3.3,3.3,0,0,1,1.06.42,5.93,5.93,0,0,0,2.05.73h0.21a1,1,0,0,0,1.08-.88,1.21,1.21,0,0,0-1-1.31,11.32,11.32,0,0,0-1.6-.29,6,6,0,0,1-1.4-.29,0.79,0.79,0,0,1-.49-0.58,2.16,2.16,0,0,1,.3-1.55,0.51,0.51,0,0,1,.39-0.14,4.2,4.2,0,0,1,1.44.44,0.92,0.92,0,0,0,.37.08,1,1,0,0,0,1-.91c0-.11,0-0.62-0.86-0.62h-0.2c-0.16,0-.38,0-0.63,0a1.3,1.3,0,0,1-1.29-.48,0.38,0.38,0,0,1,.06-0.35,1.42,1.42,0,0,1,1.09-.33,6,6,0,0,1,1.62.26,3.8,3.8,0,0,0,.94.14,1.78,1.78,0,0,0,1.88-1.81,2,2,0,0,0-.54-1.38,1.5,1.5,0,0,0-1.08-.45M97.59,471.88h0a1.15,1.15,0,0,0-1.11,1.21,1.45,1.45,0,0,0,1.16,1.41h0a1.13,1.13,0,0,0,.94-1.32,1.08,1.08,0,0,0-1-1.3m-7.68-22.4a1,1,0,0,0,1,.53H91a1.42,1.42,0,0,0,1.12-.56,1.64,1.64,0,0,0,.3-1.4,1.72,1.72,0,0,0-1.62-1.55,1.31,1.31,0,0,0-.62.15,1.39,1.39,0,0,0-.61.88,2.31,2.31,0,0,0,.33,1.89Zm8-26.15a1.66,1.66,0,0,0,1.29-1.51,2,2,0,0,0-.74-1.6,1.33,1.33,0,0,0-1.81.25,1.68,1.68,0,0,0-.35,1.77,1.61,1.61,0,0,0,1.61,1.09m23.39,13.52,0.19,0a0.82,0.82,0,0,0,.5-0.17l0.14-.09a1,1,0,0,0,.41-0.66,1.52,1.52,0,0,0-.18-1,0.85,0.85,0,0,0-.8-0.53,1.14,1.14,0,0,0-1.09,1.52,1,1,0,0,0,.84.91m0.5,0.75a0.62,0.62,0,0,0,.5.64h0.12a0.65,0.65,0,0,0,.67-0.67,0.73,0.73,0,0,0-.16-0.55,0.5,0.5,0,0,0-.37-0.17,0.77,0.77,0,0,0-.76.75m-18.87-15.79a0.71,0.71,0,0,0,.43-0.62,0.84,0.84,0,0,0-.46-0.83,0.7,0.7,0,0,0-.94.34,0.85,0.85,0,0,0,.13.8,0.79,0.79,0,0,0,.84.3M115.12,437h0a1.38,1.38,0,0,0,1.36-1.26,2.24,2.24,0,0,0-.34-1.57,1.68,1.68,0,0,0-1.08-.52,1.35,1.35,0,0,0-1.43,1.53,2,2,0,0,0,.38,1.27,1.68,1.68,0,0,0,1.09.56M88.19,458.2a0.84,0.84,0,0,0-.92.85,1.08,1.08,0,0,0,.83,1.16h0.07a0.87,0.87,0,0,0,.94-0.84,1,1,0,0,0-.91-1.18" transform="translate(-82.12 -419.97)"/></g></svg>