<svg id="レイヤー_1" data-name="レイヤー 1" xmlns="http://www.w3.org/2000/svg" viewBox="0 0 34.93 33.35"><title>12</title><g id="g396"><path id="path398" d="M154.41,458.35h-0.06a0.43,0.43,0,0,0-.37.45c0,0.33.13,0.42,0.48,0.41h0a0.43,0.43,0,0,0,.36-0.21,0.42,0.42,0,0,0,0-.39,0.49,0.49,0,0,0-.46-0.27m23.41,1.27h0a0.7,0.7,0,0,0-.58.9,0.76,0.76,0,0,0,.63.88h0a1,1,0,0,0,.73-1,0.77,0.77,0,0,0-.77-0.77M152.19,441a0.75,0.75,0,0,0-.86-0.87h0a0.53,0.53,0,0,0-.45.21,0.84,0.84,0,0,0-.19.62,0.79,0.79,0,0,0,.74.88h0a0.82,0.82,0,0,0,.58-0.28,0.73,0.73,0,0,0,.19-0.55m33.39,2.66a1.37,1.37,0,0,0-1.45-.85,1.77,1.77,0,0,0-.51.1,14,14,0,0,0-2.4,1.32c-0.39.25-.77,0.49-1,0.63a1.2,1.2,0,0,1-.49.16,0.44,0.44,0,0,1-.49-0.43,0.42,0.42,0,0,1,.37-0.47h0.15a0.77,0.77,0,0,0,.76-0.38,0.42,0.42,0,0,0-.09-0.45,0.32,0.32,0,0,0-.24-0.11,1,1,0,0,0-.41.18,1.14,1.14,0,0,1-.49.2,0.55,0.55,0,0,1-.5-0.34,1.13,1.13,0,0,1,0-1,0.66,0.66,0,0,1,.54-0.36,1.68,1.68,0,0,0,1.28-.5,0.45,0.45,0,0,0,0-.41,0.15,0.15,0,0,0-.16-0.1,2.23,2.23,0,0,0-.81.42,5.82,5.82,0,0,1-.57.35,0.8,0.8,0,0,1-.33.09,1.33,1.33,0,0,1-1-.73l0,0a1.48,1.48,0,0,1-.28-1.19,0.76,0.76,0,0,1,.55-0.47,1.18,1.18,0,0,0,1.09-1,0.73,0.73,0,0,0-.72-0.61h-0.13a1.2,1.2,0,0,0-.9.86l0,0.08a0.56,0.56,0,0,1-.48.37,0.6,0.6,0,0,1-.44-0.18,0.87,0.87,0,0,1-.28-0.58,1.28,1.28,0,0,1,.81-1.22,1.85,1.85,0,0,0,1.21-1.23,0.35,0.35,0,0,0-.28-0.31,0.55,0.55,0,0,0-.23,0,2,2,0,0,0-1.27,1.19,1,1,0,0,1-.72.6,0.56,0.56,0,0,1-.24,0,0.7,0.7,0,0,1-.41-0.54,1.12,1.12,0,0,1,.43-1,3.06,3.06,0,0,0,1.1-2.33,1.56,1.56,0,0,0-1.46-1.44c-0.78,0-1.14,1.21-1.35,1.91s-0.43,1.15-.89,1.17a1,1,0,0,1-.37-0.06,1.12,1.12,0,0,1-.58-1.42l0.05-.31c0.08-.47.08-0.59-0.09-0.64h-0.06a0.94,0.94,0,0,0-.33.91,0.91,0.91,0,0,1-1,.86,1.94,1.94,0,0,1-.5,0,1.25,1.25,0,0,1-1.13-1.31,0.73,0.73,0,0,0-.2-0.53,0.56,0.56,0,0,0-.41-0.15,0.67,0.67,0,0,0-.49.24,0.51,0.51,0,0,0-.11.44,1.05,1.05,0,0,1-.2.83,1,1,0,0,1-.8.38,2,2,0,0,1-.63-0.08c-1.12-.32-1.24-1.4-1.22-2.42a0.56,0.56,0,0,0-.13-0.42,0.38,0.38,0,0,0-.28-0.1,0.37,0.37,0,0,0-.3.17,0.65,0.65,0,0,0,0,.6l0,0.09c0.34,0.71.8,1.69,0.49,2.27a1.26,1.26,0,0,1-2.08.12,0.89,0.89,0,0,0-.68-0.34,0.32,0.32,0,0,0-.27.13,0.65,0.65,0,0,0,0,.58l0,0.05c0.15,0.51.28,0.95-.17,1.21a0.67,0.67,0,0,1-.32.1c-0.69,0-1.24-1.11-2-2.86a1.14,1.14,0,0,0-.76-0.83,0.35,0.35,0,0,0-.3.28,0.8,0.8,0,0,0,.35.86,6.86,6.86,0,0,1,2,2.94,0.86,0.86,0,0,1-.22.67,1.18,1.18,0,0,1-.81.38,0.74,0.74,0,0,1-.44-0.1,1.61,1.61,0,0,1-.45-0.51,0.79,0.79,0,0,0-.53-0.43l-0.21,0a0.44,0.44,0,0,0-.36.17,0.4,0.4,0,0,0,0,.36,0.84,0.84,0,0,0,.57.55,1.35,1.35,0,0,1,.69.57,0.64,0.64,0,0,1,0,.6,0.58,0.58,0,0,1-.49.29,0.77,0.77,0,0,1-.24,0,7.74,7.74,0,0,1-3.14-2,0.33,0.33,0,0,0-.3-0.15,0.51,0.51,0,0,0-.46.35,0.5,0.5,0,0,0,.38.5l0.51,0.23c0.92,0.4,2.45,1.06,2.73,1.93a0.67,0.67,0,0,1,0,.62,0.68,0.68,0,0,1-.55.27,1.08,1.08,0,0,1-.33,0,2.31,2.31,0,0,1-.7-0.46,1.56,1.56,0,0,0-.82-0.46,0.41,0.41,0,0,0-.32.2,0.34,0.34,0,0,0-.06.35,2.45,2.45,0,0,0,1.68.85,0.42,0.42,0,0,1,.43.41,0.47,0.47,0,0,1-.43.43,0.46,0.46,0,0,1-.27-0.08,1,1,0,0,0-.56-0.19,0.32,0.32,0,0,0-.34.29,0.47,0.47,0,0,0,.5.42,0.63,0.63,0,0,1,.56.42,1.26,1.26,0,0,1-.31,1.11,1.42,1.42,0,0,1-1,.44,3.05,3.05,0,0,1-1.44-.37,1.76,1.76,0,0,0-.82-0.19,1.07,1.07,0,0,0-.75.35,1.44,1.44,0,0,0-.35,1,1.29,1.29,0,0,0,1.42,1.24,2.89,2.89,0,0,0,.72-0.15,5.37,5.37,0,0,1,1.37-.28,1.3,1.3,0,0,1,1.06.3,0.5,0.5,0,0,1,.11.45,1.13,1.13,0,0,1-1.22.59c-0.21,0-.4,0-0.53,0h-0.14c-0.34,0-.52.14-0.52,0.35a0.62,0.62,0,0,0,.64.53,0.54,0.54,0,0,0,.23-0.06,3.64,3.64,0,0,1,1.24-.43,0.57,0.57,0,0,1,.47.16,1.89,1.89,0,0,1,.35,1.43,0.83,0.83,0,0,1-.48.63,5,5,0,0,1-1.18.31,9.65,9.65,0,0,0-1.28.29,0.8,0.8,0,0,0-.61.9,0.64,0.64,0,0,0,.72.52l0.15,0a4.66,4.66,0,0,0,1.6-.65,2.82,2.82,0,0,1,.92-0.4l0.17,0a1.05,1.05,0,0,1,.93.38,1.67,1.67,0,0,1,.31,1c0,0.82-1.07,2.12-2.11,2.86a1.58,1.58,0,0,0-.89,1.2,0.39,0.39,0,0,0,.31.3h0.08a1.78,1.78,0,0,0,.83-0.74l0.22-.27,0.06-.07a2.37,2.37,0,0,1,1.17-1,0.39,0.39,0,0,1,.25.08,0.35,0.35,0,0,1,0,.47,0.44,0.44,0,0,0-.07.23,0.17,0.17,0,0,0,.12.05H158a0.86,0.86,0,0,0,.61-0.53,1.38,1.38,0,0,1,.79-0.86,0.36,0.36,0,0,1,.26.1,0.34,0.34,0,0,1,.13.25c0,0.49-.74,1.3-1.74,2.32l-0.31.32a1.73,1.73,0,0,0-.68,1.33,0.37,0.37,0,0,0,.15.27h0a2.9,2.9,0,0,0,.93-1.11l0.12-.19,0.2-.32c0.4-.68,1-1.71,1.75-1.77h0a0.49,0.49,0,0,1,.51.28,1.66,1.66,0,0,1-.34,1.46,0.65,0.65,0,0,0-.2.68,0.45,0.45,0,0,0,.43.24,0.65,0.65,0,0,0,.56-0.57,1.41,1.41,0,0,1,1.27-1.09,1.21,1.21,0,0,1,.73.21c0.74,0.48.8,1.21,0.2,2.5a2,2,0,0,0-.31,1.36,0.46,0.46,0,0,0,.32.23l0.11,0c0.37,0,.56-0.9.66-1.37,0.23-1.1.71-1.71,1.35-1.74h0.23a1,1,0,0,1,.77.6,0.59,0.59,0,0,0,.62.4h0a0.66,0.66,0,0,0,.66-0.6,1.25,1.25,0,0,1,.41-0.66,0.91,0.91,0,0,1,.49-0.17,1.09,1.09,0,0,1,1,.65,2.48,2.48,0,0,1-.12,1.68,0.8,0.8,0,0,0,.06.62,0.25,0.25,0,0,0,.21.15H170a0.42,0.42,0,0,0,.29-0.14,1.11,1.11,0,0,0,.17-0.83,1.27,1.27,0,0,1,.22-1,0.61,0.61,0,0,1,.43-0.21h0a0.32,0.32,0,0,1,.24.11,2.19,2.19,0,0,1,.19,1.47,6,6,0,0,1-.08.64,2.19,2.19,0,0,0,0,1.43,0.5,0.5,0,0,0,.39.16h0a0.32,0.32,0,0,0,.27-0.13,2.78,2.78,0,0,0-.18-1.73l-0.08-.26a3.39,3.39,0,0,1,.06-2,0.45,0.45,0,0,1,.34-0.18h0.29c0.32,0,.4-0.19.44-0.84a0.77,0.77,0,0,1,.79-0.71,0.86,0.86,0,0,1,.78.37,4.57,4.57,0,0,1,.37.91,4.81,4.81,0,0,0,.8,1.66,0.35,0.35,0,0,0,.27.12,0.41,0.41,0,0,0,.33-0.23,0.52,0.52,0,0,0,0-.54,5.36,5.36,0,0,0-.52-0.66,2.46,2.46,0,0,1-.86-1.57,0.41,0.41,0,0,1,.33-0.45,0.53,0.53,0,0,1,.44.31,1.05,1.05,0,0,0,.77.38,0.52,0.52,0,0,0,.36-0.17,0.62,0.62,0,0,0,.17-0.57,1,1,0,0,0-.69-0.6,0.35,0.35,0,0,1-.23-0.41,0.94,0.94,0,0,1,.79-0.75,0.62,0.62,0,0,1,.24,0,6.3,6.3,0,0,1,2.1,1.84,1.37,1.37,0,0,0,1.13.5,1.09,1.09,0,0,0,.38-2.11,6,6,0,0,0-1.92-.5l-0.57-.1a1,1,0,0,1-.69-0.48,0.82,0.82,0,0,1-.06-0.7,0.91,0.91,0,0,1,.79-0.62,0.86,0.86,0,0,1,.34.06l0.35,0.17a1.43,1.43,0,0,0,.56.2,0.24,0.24,0,0,0,.21-0.17,0.29,0.29,0,0,0,0-.3,1.52,1.52,0,0,0-1.17-.37,0.63,0.63,0,0,1-.7-0.51,0.47,0.47,0,0,1,.53-0.42h0.06a0.91,0.91,0,0,1,.56.2,0.81,0.81,0,0,0,.55.18l0.25,0a0.45,0.45,0,0,0,.36-0.35,0.68,0.68,0,0,0-.16-0.63,0.61,0.61,0,0,0-.46-0.14,2.68,2.68,0,0,0-.4.06,3.68,3.68,0,0,1-.39.06h-0.15a0.7,0.7,0,0,1-.54-0.82,1.08,1.08,0,0,1,.91-1.12h0.06a8.17,8.17,0,0,1,2.52.64,1.62,1.62,0,0,0,.79.22,0.49,0.49,0,0,0,.48-0.35,0.29,0.29,0,0,0,0-.28,1.59,1.59,0,0,0-1.17-.42l-1.4-.08-0.91-.06a0.59,0.59,0,0,1-.53-0.63,0.52,0.52,0,0,1,.47-0.57,0.59,0.59,0,0,1,.2,0l0.52,0.15a5.07,5.07,0,0,0,1.36.29,0.53,0.53,0,0,0,.51-0.68,0.48,0.48,0,0,0-.46-0.2,0.3,0.3,0,0,1-.34-0.21c0-.11,0-0.33.56-0.52a2.59,2.59,0,0,1,.74-0.14,5.36,5.36,0,0,1,.9.06,5.24,5.24,0,0,0,.89.06,2.69,2.69,0,0,0,.65-0.11,0.91,0.91,0,0,0,.66-1.17M185,448h0a0.66,0.66,0,0,0-.53.8,0.53,0.53,0,0,0,.61.48h0a0.72,0.72,0,0,0,.47-0.79A0.5,0.5,0,0,0,185,448m-31.46,12.32a0.66,0.66,0,0,0-.62.32,1.15,1.15,0,0,0-.16.83,0.68,0.68,0,0,0,.29.47,0.93,0.93,0,0,0,.63.26,0.62,0.62,0,0,0,.42-0.2,1,1,0,0,0,.24-1.24,0.81,0.81,0,0,0-.81-0.44m2.57-27.77h0.08a0.34,0.34,0,0,0,.23-0.33,0.45,0.45,0,0,0-.47-0.43,0.22,0.22,0,0,0-.15.08,0.38,0.38,0,0,0-.08.31,0.36,0.36,0,0,0,.38.37M182.39,441h0.05a0.73,0.73,0,0,0,.68-0.46,1.7,1.7,0,0,0,.17-1.41,1,1,0,0,0-.43-0.58,0.85,0.85,0,0,0-.42-0.08,1.23,1.23,0,0,0-1.1,1.19,1.17,1.17,0,0,0,.25,1,1,1,0,0,0,.8.36m-10.28-10.11h0a1,1,0,0,0,.73-1,0.77,0.77,0,0,0-.77-0.78h0a0.71,0.71,0,0,0-.59.9,0.76,0.76,0,0,0,.63.88m-10.08.33h0a1.17,1.17,0,0,0,.75-0.44,1.5,1.5,0,0,0,.23-0.92,0.94,0.94,0,0,0-1-1h0a1.21,1.21,0,0,0-.74.41,1.83,1.83,0,0,0-.17,1.17,0.94,0.94,0,0,0,1,.82m-5.65,0a0.77,0.77,0,0,0,.44.16l0.13,0a0.64,0.64,0,0,0,.51-0.61,0.75,0.75,0,0,0-.76-1,0.52,0.52,0,0,0-.48.37,1.09,1.09,0,0,0-.09.69,0.65,0.65,0,0,0,.26.41" transform="translate(-150.67 -428.87)"/></g></svg>