<svg id="レイヤー_1" data-name="レイヤー 1" xmlns="http://www.w3.org/2000/svg" viewBox="0 0 40.14 33.26"><title>2</title><g id="g428"><path id="path430" d="M96.67,255.17a0.6,0.6,0,0,0-.14.76,0.66,0.66,0,0,0,.77.33,0.63,0.63,0,0,0-.63-1.09m13.17,2.74a0.4,0.4,0,0,0-.09.5,0.44,0.44,0,0,0,.51.22,0.4,0.4,0,0,0,.16-0.54,0.39,0.39,0,0,0-.58-0.19m-20.26-6.8a0.89,0.89,0,0,0-.3,1.35,0.9,0.9,0,0,0,1.13.32,0.93,0.93,0,0,0-.83-1.67m4.6,1.35a0.6,0.6,0,0,0-.21.75,0.63,0.63,0,0,0,1.12-.55,0.6,0.6,0,0,0-.91-0.2M88,245.29a0.51,0.51,0,0,0-.59.37,0.5,0.5,0,0,0,1,.18,0.5,0.5,0,0,0-.38-0.54m26,12.61a0.3,0.3,0,0,0-.14.44,0.31,0.31,0,0,0,.39.07,0.34,0.34,0,0,0,.17-0.39,0.31,0.31,0,0,0-.42-0.12M90,236a1.24,1.24,0,0,0-1.2-1.29A1.22,1.22,0,0,0,87.4,236a1.24,1.24,0,0,0,1.21,1A1.37,1.37,0,0,0,90,236M126,244a0.45,0.45,0,0,0-.69-0.15,0.46,0.46,0,0,0-.16.57A0.47,0.47,0,0,0,126,244m-4-6.27a0.47,0.47,0,0,0-.56.49,0.48,0.48,0,0,0,.39.49,0.5,0.5,0,0,0,.54-0.39,0.51,0.51,0,0,0-.37-0.59m-2,11.43a0.59,0.59,0,0,0-.81-0.24,0.56,0.56,0,1,0,.48,1,0.65,0.65,0,0,0,.33-0.77m1.2-7.48a3,3,0,0,0-.92.24l-0.34.12a1.47,1.47,0,0,1-.46.08,0.74,0.74,0,0,1-.57-0.23,2.29,2.29,0,0,1-.26-1.65,5.36,5.36,0,0,0,0-.93,3.6,3.6,0,0,0-.71-1.79c-0.09-.13-0.18-0.26-0.27-0.41a0.9,0.9,0,0,1-.13-0.7,1.36,1.36,0,0,1,.78-0.72c0.44-.23.5-0.31,0.46-0.43-0.09-.3-0.2-0.3-0.29-0.3a2.13,2.13,0,0,0-.6.15,2.66,2.66,0,0,1-.89.21,1,1,0,0,1-.54-0.14,2.5,2.5,0,0,1-1.27-1.52,2.15,2.15,0,0,0-.79-1.12,3.4,3.4,0,0,0-1.43-.68,0.85,0.85,0,0,1-.78-0.57,1.21,1.21,0,0,1,.72-1.32,1,1,0,0,0,.54-0.61,0.82,0.82,0,0,0-.16-0.63,0.6,0.6,0,0,0-.45-0.18,0.84,0.84,0,0,0-.83.69h0a1.61,1.61,0,0,1-2.5,1.23,3.68,3.68,0,0,0-1.94-.59,2.29,2.29,0,0,0-.88.16,3.48,3.48,0,0,1-1.25.3,0.81,0.81,0,0,1-.68-0.27,0.66,0.66,0,0,1-.09-0.6,0.93,0.93,0,0,0-.08-0.83,0.57,0.57,0,0,0-.45-0.22,0.37,0.37,0,0,0-.3.13,0.41,0.41,0,0,0,0,.34,1.5,1.5,0,0,1,0,1.28,2.32,2.32,0,0,1-1.7.83l-0.27,0A1.28,1.28,0,0,1,100.6,230,1.71,1.71,0,0,0,99,228.63H98.79a1.88,1.88,0,0,0-1.7.94,1.43,1.43,0,0,0,.26,1.54,2.38,2.38,0,0,0,.55.44,1.44,1.44,0,0,1,.79.9,1.28,1.28,0,0,1-.38,1,1.66,1.66,0,0,1-1.24.73,1.5,1.5,0,0,1-1.15-.68,0.54,0.54,0,0,0-.43-0.21,0.64,0.64,0,0,0-.5.25,0.75,0.75,0,0,0-.12.69,1.24,1.24,0,0,0,.57.66,1.21,1.21,0,0,1,.61.76,1.16,1.16,0,0,1-.32.87,2,2,0,0,1-1.46,1,1.76,1.76,0,0,1-1.13-.6,1.74,1.74,0,0,0-.89-0.53H92.09a0.71,0.71,0,0,0-.57.2,1,1,0,0,0-.13.83,1.29,1.29,0,0,0,1.48,1.16,1.44,1.44,0,0,1,1.19.42,1.5,1.5,0,0,1-.06,1.29,6.89,6.89,0,0,0-.37,2,6.07,6.07,0,0,0,.43,2.47,1.51,1.51,0,0,1-.16,1.81,2.39,2.39,0,0,1-1.5.87,2,2,0,0,0-1.27.7,1.09,1.09,0,0,0-.11,1.06,1,1,0,0,0,.8.58H92a3.13,3.13,0,0,0,1.58-.71,2.73,2.73,0,0,1,1.37-.63H95a1.06,1.06,0,0,1,.88,1.07,2.46,2.46,0,0,0,.62,1.3,1.45,1.45,0,0,1,.62,1.1,1.15,1.15,0,0,1-.68.76c-0.13.08-.26,0.16-0.39,0.26a0.65,0.65,0,0,0-.32.69,0.36,0.36,0,0,0,.36.23,1.78,1.78,0,0,0,1.27-.91,1,1,0,0,1,.7-0.51,1,1,0,0,1,.64.38,5.65,5.65,0,0,0,2.36,1.42c0.57,0.2.42,0.81,0.3,1.31a1.64,1.64,0,0,0,0,1.21,0.68,0.68,0,0,0,.56.2,1,1,0,0,0,.29,0,0.52,0.52,0,0,0,.31-0.26,0.33,0.33,0,0,0,0-.27l0-.08a1.08,1.08,0,0,1,0-1.49,0.57,0.57,0,0,1,.37-0.11,4.3,4.3,0,0,1,1,.22l0.19,0.05a7.79,7.79,0,0,0,1.57.12h1.72a0.73,0.73,0,0,1,.59.23,1.34,1.34,0,0,1,.1,1.08,1.32,1.32,0,0,0,0,.88,0.81,0.81,0,0,0,.57.16h0a0.34,0.34,0,0,0,.26-0.08,1.86,1.86,0,0,0-.07-1.06c-0.14-.59-0.3-1.32.32-1.47a1.23,1.23,0,0,1,.29,0,0.87,0.87,0,0,1,.77.9l0.07,0.28a1.61,1.61,0,0,0,1.4,1.32,1.25,1.25,0,0,0,.37-0.06,1.42,1.42,0,0,0,.82-0.71,1.23,1.23,0,0,0,.1-1,1.48,1.48,0,0,0-.38-0.46,0.86,0.86,0,0,1-.27-1.29,2.5,2.5,0,0,1,1.64-1,1.08,1.08,0,0,1,1,.6,2,2,0,0,0,1.63.91,1.32,1.32,0,0,0,.58-0.12,1.58,1.58,0,0,0,.89-1,0.77,0.77,0,0,0-.22-0.68,1.31,1.31,0,0,0-.83-0.19,1.63,1.63,0,0,1-1.49-.62,0.78,0.78,0,0,1,.1-1.16,4.51,4.51,0,0,0,1.06-1.89,1.62,1.62,0,0,1,1.73-1c0.69,0,1.1-.09,1.26-0.63a1.46,1.46,0,0,0-.7-1.65,1.19,1.19,0,0,1-.61-1.16,1.25,1.25,0,0,1,1.34-1.11,5.39,5.39,0,0,1,.76.07l0.27,0a1.18,1.18,0,0,0,1-.38,0.68,0.68,0,0,0,0-.67,0.59,0.59,0,0,0-.59-0.48m-3.57,13.51a0.62,0.62,0,0,0,.55,1.12,0.63,0.63,0,0,0,.26-0.79,0.64,0.64,0,0,0-.81-0.32m2.5,0a0.45,0.45,0,0,0-.15.68,0.45,0.45,0,0,0,.57.16,0.47,0.47,0,0,0-.42-0.84m2.71-22.11a0.74,0.74,0,0,0-.25.93,0.76,0.76,0,0,0,1.36-.67,0.73,0.73,0,0,0-1.11-.26m-21.23-6a0.51,0.51,0,0,0,.54-0.38,0.52,0.52,0,0,0-.37-0.59,0.5,0.5,0,0,0-.18,1m9.17,0.88a1.24,1.24,0,0,0,1.29-1.2,1.23,1.23,0,0,0-1.25-1.43,1.24,1.24,0,0,0-1.05,1.21,1.38,1.38,0,0,0,1,1.42m4.1-.75a0.6,0.6,0,0,0,.24-0.81,0.56,0.56,0,1,0-1,.48,0.65,0.65,0,0,0,.76.34m6,8.65a0.59,0.59,0,0,0,.75.13,0.66,0.66,0,0,0,.33-0.77,0.59,0.59,0,0,0-.81-0.24,0.58,0.58,0,0,0-.28.87m-0.5,1.38a0.34,0.34,0,0,0,.27.35,0.35,0.35,0,0,0,.39-0.28,0.36,0.36,0,0,0-.26-0.42,0.34,0.34,0,0,0-.4.35m0.15-3.73a0.85,0.85,0,0,0,.25-1.16,0.81,0.81,0,0,0-1.25-.14,0.82,0.82,0,0,0-.12,1.06,0.89,0.89,0,0,0,1.13.25m-31,15.13a0.6,0.6,0,0,0,.76.14,0.67,0.67,0,0,0,.34-0.77,0.6,0.6,0,0,0-.81-0.23,0.59,0.59,0,0,0-.28.87m-3.18-3.31a0.37,0.37,0,0,0-.42.26,0.34,0.34,0,0,0,.35.4,0.34,0.34,0,0,0,.35-0.27,0.36,0.36,0,0,0-.27-0.39m1.1,4.27a0.6,0.6,0,0,0-.14.76,0.66,0.66,0,0,0,.77.34,0.63,0.63,0,0,0-.63-1.09m10.73-22.3a0.76,0.76,0,0,0-.33-1.48,0.76,0.76,0,0,0,.33,1.48m-5.85,7.72a0.47,0.47,0,0,0-.42-0.85,0.47,0.47,0,0,0,.42.85m2.9-4.19a0.48,0.48,0,0,0,.24-0.62,0.45,0.45,0,0,0-.69-0.15,0.46,0.46,0,0,0-.16.57,0.48,0.48,0,0,0,.6.2m5.17-4.81a0.36,0.36,0,0,0,.13-0.7,0.34,0.34,0,0,0-.4.35,0.34,0.34,0,0,0,.27.35" transform="translate(-85.84 -225.41)"/></g></svg>