<svg id="レイヤー_1" data-name="レイヤー 1" xmlns="http://www.w3.org/2000/svg" viewBox="0 0 50.76 67.82"><title>3</title><g id="g424"><path id="path426" d="M144,243a0.44,0.44,0,0,0,.1.68,0.45,0.45,0,0,0,.56-0.16,0.5,0.5,0,0,0,0-.63,0.45,0.45,0,0,0-.63.11m0.36-2.12a0.81,0.81,0,0,0-1.11-.32,0.8,0.8,0,0,0-.38,1.18,0.81,0.81,0,0,0,1,.18,0.9,0.9,0,0,0,.46-1m4-4a1.68,1.68,0,0,0-1.63-1.75,1.67,1.67,0,0,0-1.95,1.71,1.7,1.7,0,0,0,1.65,1.43c0.67,0,1.93-.48,1.93-1.39m44.34,4.1a0.78,0.78,0,0,0-.69.76,0.77,0.77,0,0,0,1.5-.25,0.72,0.72,0,0,0-.81-0.51m-1.82,1.88a1.16,1.16,0,0,0-1.36,1.18,1.17,1.17,0,0,0,1.15,1,1.3,1.3,0,0,0,1.34-1,1.17,1.17,0,0,0-1.13-1.22m-1.19-.88a1,1,0,0,0-1.09-.48h-0.12c-1.07,0-1.31-.34-1.45-0.69a4.36,4.36,0,0,1,.3-2.91,1.74,1.74,0,0,1,1.63-1h0.2c0.86-.06,1.43-0.35,1.42-0.72a0.71,0.71,0,0,0-.81-0.66,1.7,1.7,0,0,0-.32,0c-0.13,0-.32.08-0.51,0.15a4.26,4.26,0,0,1-1.24.27,1.11,1.11,0,0,1-1-.54,1.76,1.76,0,0,1-.22-1.51,2.21,2.21,0,0,1,1.05-1,0.64,0.64,0,0,0,.31-0.36,0.34,0.34,0,0,0,0-.24,0.7,0.7,0,0,0-.65-0.33,1.39,1.39,0,0,0-.43.07l-0.06,0a2.86,2.86,0,0,1-.87.17,1.48,1.48,0,0,1-1.43-1.14c-0.25-.68.52-1.12,1.08-1.45a2.27,2.27,0,0,0,.46-0.31,1.13,1.13,0,0,0,.37-0.79,0.47,0.47,0,0,0-.3-0.53,1,1,0,0,0-.25,0,1.1,1.1,0,0,0-.58.27,1.85,1.85,0,0,0-.32.34,1.45,1.45,0,0,1-1,.64,2,2,0,0,1-.37,0,2.18,2.18,0,0,1-.49-0.06,3.6,3.6,0,0,1-2-.93,2.24,2.24,0,0,1-.56-1.77,2,2,0,0,1,.66-1.05,1,1,0,0,0,.5-1,0.82,0.82,0,0,0-.77-0.56,0.81,0.81,0,0,0-.56.25,1.55,1.55,0,0,0-.17.81,2,2,0,0,1-.56,1.55,1.32,1.32,0,0,1-.84.28,3.21,3.21,0,0,1-1.46-.53l-0.48-.25h0l-0.23-.11a5.74,5.74,0,0,0-1.84-.54,1,1,0,0,1-1-.41,1.6,1.6,0,0,1,.4-1.41c0.69-.86.76-1.29,0.29-1.71a0.89,0.89,0,0,0-.61-0.24,1.57,1.57,0,0,0-1,.45,1.35,1.35,0,0,0-.19,1.24,1.42,1.42,0,0,1-1.63,1.94l-0.5,0a1.23,1.23,0,0,1-.95-0.44,1.74,1.74,0,0,1-.06-1.44,2.32,2.32,0,0,0,.1-0.93,1,1,0,0,0-.91-0.75c-0.39,0-.58.1-0.73,0.68v0a2.15,2.15,0,0,0,.22,1l0.07,0.2c0,0.07.05,0.14,0.08,0.21a1.1,1.1,0,0,1,0,1,1.45,1.45,0,0,1-.81.42h0l-0.27.07a4.14,4.14,0,0,1-.72.16c-1.13,0-1.17-.59-1.21-1.28,0-.12,0-0.24,0-0.37a2.35,2.35,0,0,0-.45-1.49,1.35,1.35,0,0,0-1-.45,1.27,1.27,0,0,0-1,.41,1.73,1.73,0,0,0-.36,1.38,2,2,0,0,0,.64,1.18,1.57,1.57,0,0,1,.52.88c0.09,0.85-.79,1.16-1.5,1.41a4.57,4.57,0,0,0-1.07.48,11.14,11.14,0,0,0-1.52,1.35,2.08,2.08,0,0,1-1.27.85,1.19,1.19,0,0,1-1-1,1.07,1.07,0,0,0-1-.81,1.77,1.77,0,0,0-.54.09,1,1,0,0,0-.6.67,1.05,1.05,0,0,0,.11,1,1.51,1.51,0,0,0,.57.38,1.43,1.43,0,0,1,1.06,1.49,2.19,2.19,0,0,1-1.91,1.69,0.83,0.83,0,0,1-.68-0.31,1.53,1.53,0,0,0-1-.86,1.18,1.18,0,0,0-.3,0,0.88,0.88,0,0,0-.6.46,1,1,0,0,0,.11.83,0.71,0.71,0,0,0,.6.22,1.27,1.27,0,0,1,1.28.89,1,1,0,0,1-.06.81,1.34,1.34,0,0,1-.92.51c-0.55.13-.77,0.23-0.81,0.66a0.72,0.72,0,0,0,.44.27,1.13,1.13,0,0,1,.88.91,1.28,1.28,0,0,1-1,1.24,0.72,0.72,0,0,0-.5.32c0,0.09,0,.12.37,0.28a1.4,1.4,0,0,1,.91.78,0.91,0.91,0,0,1-.17.81,2.88,2.88,0,0,1-2.36.89,5.32,5.32,0,0,1-.71,0l-0.25,0a16.46,16.46,0,0,0-2-.19,3.53,3.53,0,0,0-2,.5,1.17,1.17,0,0,0-.6.64,0.25,0.25,0,0,0,.13.16,1.3,1.3,0,0,0,.64.09,7.61,7.61,0,0,0,1.39-.15l0.62-.13a13.91,13.91,0,0,1,2.87-.41,5.14,5.14,0,0,1,1.47.2c1.05,0.28.77,1.38,0.64,1.9a2.51,2.51,0,0,0-.08.35c0,1,.62,1.25,1.35,1.55a1.84,1.84,0,0,1,1.18.9,1.46,1.46,0,0,1-.13,1.18,1.79,1.79,0,0,1-.73.64,1.45,1.45,0,0,0-.63.54,0.47,0.47,0,0,0,.16.33,0.38,0.38,0,0,0,.31.1,4,4,0,0,0,1-.2,4.49,4.49,0,0,1,.69-0.16l0.43,0a1,1,0,0,1,1.11.56c0.27,0.82-1.15,2.1-2.39,3-0.26.19-.69,0.44-1.24,0.76-1.15.66-3.84,2.22-3.61,3a0.58,0.58,0,0,0,.58.52,4.34,4.34,0,0,0,2.62-2,8.7,8.7,0,0,1,2.45-2.4,3.34,3.34,0,0,1,1.87-.81,1.87,1.87,0,0,1,1,.29,1.58,1.58,0,0,1,.85,1.29c0.08,1.39-1.72,2.82-1.93,3a2.66,2.66,0,0,0-1.21,2.19,0.62,0.62,0,0,0,.67.56,1.09,1.09,0,0,0,.65-0.23,3.91,3.91,0,0,0,1-1.69c0.45-1.12,1-2.38,2.57-2.45h0.09c2.08,0,2.32,2.63,2.47,4.38,0,0.26,0,.54.08,0.84a39.71,39.71,0,0,1,.26,5,13.64,13.64,0,0,1-1.24,5.45c-0.17.32-.36,0.63-0.55,1-0.75,1.25-1.52,2.55-.95,3.77a5,5,0,0,0,.39.65,2.64,2.64,0,0,1,.59,1.52,7.55,7.55,0,0,1-.26,2.27c-0.06.25-.11,0.51-0.16,0.76-0.42,2.37-.26,3.93.49,4.63a1.58,1.58,0,0,0,1.08.49c1,0,2-1.08,2.5-2,1.49-2.56.84-6.71,0.36-9.75h0c0-.27-0.08-0.53-0.12-0.78a47.46,47.46,0,0,1-.49-11.09,15.38,15.38,0,0,1,.91-5,1.55,1.55,0,0,1,2.07-1.42,0.75,0.75,0,0,1,.54.73,1.64,1.64,0,0,0,.94,1.29c1.82,1.05,2.17,1.82,1.78,3.92-0.35,1.88-1,5.38.14,6.93a1.49,1.49,0,0,0,1.22.66h0.09a1,1,0,0,0,.72-0.44c0.8-.95.33-7.53,0-9.51-0.12-.71-0.23-1.34-0.25-1.76a1.87,1.87,0,0,1,.8-2,3.32,3.32,0,0,0,.43-0.38,2.83,2.83,0,0,0,.39-0.77c0.26-.62.55-1.32,1.09-1.32a1.5,1.5,0,0,1,.58.14,1.7,1.7,0,0,1,1,1.39,2.21,2.21,0,0,0,.3.79,1.12,1.12,0,0,0,.54.39c0.4,0.17.8,0.34,0.77,1.47,0,0.59-.06,1.14-0.09,1.63a4.14,4.14,0,0,0,.18,2.43,0.92,0.92,0,0,0,.76.34h0.2a1,1,0,0,0,.78-0.48c0.65-1.13-.18-3.85-0.68-5-0.78-1.77-1-3.87-.48-4.67a0.8,0.8,0,0,1,.67-0.39c0.57,0,1.17.63,1.85,1.93a0.45,0.45,0,0,0,.37.29,0.6,0.6,0,0,0,.5-0.38,1,1,0,0,0-.34-1.07,2.68,2.68,0,0,1-1-1.92,1.79,1.79,0,0,1,.69-1.27h0a1.12,1.12,0,0,1,.69-0.26,1.68,1.68,0,0,1,1,.52,1.4,1.4,0,0,0,.78.43,0.71,0.71,0,0,0,.31-0.08,1,1,0,0,0,.53-0.87,1.57,1.57,0,0,0-1.32-1,0.61,0.61,0,0,1-.42-0.37,1.19,1.19,0,0,1,.28-1,4.27,4.27,0,0,0,.72-2.82,1,1,0,0,1,.19-0.85l0,0a0.86,0.86,0,0,1,.61-0.38,4.75,4.75,0,0,1,.87.12,1.9,1.9,0,0,1,.39.15,1,1,0,0,0,.42.14,0.7,0.7,0,0,0,.62-0.25,0.38,0.38,0,0,0,.08-0.47m-28.6-20.47a1.69,1.69,0,0,0,.35-2.37,1.66,1.66,0,0,0-2.55-.46,1.69,1.69,0,0,0-.1,2.18c0.41,0.53,1.58,1.21,2.29.65m26,4.42a0.45,0.45,0,0,0,.56-0.16,0.49,0.49,0,0,0,0-.63,0.48,0.48,0,0,0-.53.79m-2.34.83a0.69,0.69,0,0,0,.54-0.73,0.72,0.72,0,0,0-.81-0.51,0.78,0.78,0,0,0-.69.76,0.69,0.69,0,0,0,1,.48m0.81-2.29a1.25,1.25,0,0,0,.64-1.44,1.12,1.12,0,0,0-1.52-.43,1.1,1.1,0,0,0-.53,1.63,1.11,1.11,0,0,0,1.42.25m-34,5.22a1.08,1.08,0,0,0,.45-1.33,1.07,1.07,0,0,0-1.37-.52,1,1,0,0,0-.35,1.51,1,1,0,0,0,1.26.34m-0.85,2.24a0.69,0.69,0,0,0,.75-0.51,0.72,0.72,0,0,0-.6-0.75,0.78,0.78,0,0,0-.9.49,0.69,0.69,0,0,0,.75.77" transform="translate(-142.76 -218.18)"/></g></svg>