<svg id="レイヤー_1" data-name="レイヤー 1" xmlns="http://www.w3.org/2000/svg" viewBox="0 0 40.15 41.3"><title>4</title><g id="g400"><path id="path402" d="M55.15,318.1a1.16,1.16,0,0,0,0,1.24,0.94,0.94,0,0,0,1.28.51,0.8,0.8,0,0,0,.13-1.33,1,1,0,0,0-1.45-.42m-27.4-13a1.14,1.14,0,0,0-1.2-.72,1,1,0,0,0-.92.72,0.77,0.77,0,0,0,.92.86,1,1,0,0,0,1.2-.86M51.62,325.5a1,1,0,0,0-.82.94,0.73,0.73,0,0,0,.84.83,0.86,0.86,0,0,0,.69-0.34,0.92,0.92,0,0,0,.18-0.76,0.79,0.79,0,0,0-.88-0.67m12.85-15.16a2.48,2.48,0,0,0-2.14-.76,7,7,0,0,0-.76,0c-0.35,0-.68.09-1,0.14a18.73,18.73,0,0,1-2.21.24l-0.94,0a19.58,19.58,0,0,1-2.27-.12l-0.69-.08a18.4,18.4,0,0,1-2.14-.31,2.7,2.7,0,0,0-.46,0c-0.42,0-1.12,0-1.12-.7a1.55,1.55,0,0,1,1-1.41,1.26,1.26,0,0,1,.53-0.1,5.4,5.4,0,0,1,.56,0,6.28,6.28,0,0,0,.64,0,1.51,1.51,0,0,0,.89-0.23,0.45,0.45,0,0,0,.21-0.49,0.72,0.72,0,0,0-.44-0.53,2.77,2.77,0,0,0-.52-0.05,3.9,3.9,0,0,0-1.93.64,1.06,1.06,0,0,1-.51.15,0.88,0.88,0,0,1-.78-0.52,1,1,0,0,1,0-.85,1,1,0,0,1,.76-0.54,2.1,2.1,0,0,0,1.39-.79,0.71,0.71,0,0,0,0-.61,0.48,0.48,0,0,0-.49-0.34,1,1,0,0,0-.76.45,1.45,1.45,0,0,1-1.1.65,0.82,0.82,0,0,1-.66-0.31,1.12,1.12,0,0,1,.17-1.72c0.4-.35,1.4-1.51,1.69-1.7s1.77-1.6,2.23-2a1.58,1.58,0,0,0,.54-1.15,0.39,0.39,0,0,0-.17-0.3,1.08,1.08,0,0,0-.57-0.17,0.79,0.79,0,0,0-.72.39,39.36,39.36,0,0,1-3.52,4.65,1,1,0,0,1-.71.41,0.92,0.92,0,0,1-.48-0.16,1.36,1.36,0,0,1-.13-1.55,1,1,0,0,0,.06-1.13A1.34,1.34,0,0,1,48.1,298c0.62-.89,2-2.67,2.89-3.85l0.63-.82a2.33,2.33,0,0,0,.5-1.78,0.65,0.65,0,0,0-.35-0.45,1.28,1.28,0,0,0-.52-0.11,1.5,1.5,0,0,0-1.34,1.1c-0.78,2-2.73,6.6-3.82,7.1a2.28,2.28,0,0,0-.84.59,1,1,0,0,1-.86.38,4.65,4.65,0,0,1-.78-0.08,1.17,1.17,0,0,1-.85-0.57c-0.32-.55-0.18-4.55,0-4.92a1.65,1.65,0,0,0-.1-1.35,0.63,0.63,0,0,0-.52-0.28H42a0.88,0.88,0,0,0-.76.3,1.71,1.71,0,0,0,0,1.44,17.68,17.68,0,0,1-.11,4.42,0.71,0.71,0,0,1-.61.29l-0.22,0c-0.62-.12-1.29-1.48-1.53-3.1a36.76,36.76,0,0,1-.34-5.82,2,2,0,0,0-.54-1.38,1.42,1.42,0,0,0-1.85-.26,2,2,0,0,0-1,2.56c0.14,0.44.85,1.89,1.48,3.17a12.18,12.18,0,0,1,.7,1.55l0.08,0.2c0.75,2,.33,1.1.67,1.7,0.18,0.32.16,1.18-.11,1.18-0.6,0-.86,0-1-0.61a0.7,0.7,0,0,0-.51-0.65,1,1,0,0,0-.35-0.07c-0.1.07-2.18,0-.84,2a6.64,6.64,0,0,0,.69.8,2,2,0,0,1,.63,1.27,0.79,0.79,0,0,1-.19.65,1.56,1.56,0,0,1-1.11.49,1.7,1.7,0,0,1-1-.32c-0.6-.4-1.61-1.26-2.42-2l-0.69-.58a41.26,41.26,0,0,1-4.28-4.42,1.76,1.76,0,0,0-1.29-.65,1.07,1.07,0,0,0-.77.31,0.64,0.64,0,0,0-.05.51,2.92,2.92,0,0,0,1.72,2L26.79,298a5.48,5.48,0,0,1,2.41,1.65,0.63,0.63,0,0,1,.09.67,0.42,0.42,0,0,1-.4.22,1.57,1.57,0,0,1-.95-0.48,0.88,0.88,0,0,0-.57-0.21,0.62,0.62,0,0,0-.49.2,0.44,0.44,0,0,0,0,.4c0.19,0.61,1.17,1,3.48,1.24a8.51,8.51,0,0,1,3.48,1.51,1,1,0,0,1,.51.87,1,1,0,0,1-.55.69c-0.51.3-.42,0.57-0.21,1.06a0.75,0.75,0,0,1-.06,1A0.87,0.87,0,0,1,33,307a2.33,2.33,0,0,1-1.26-.45,3.48,3.48,0,0,0-1.63-.75,0.41,0.41,0,0,0-.17,0c-0.26.11-.28,0.2-0.2,0.43a1.92,1.92,0,0,0,1,.5,0.61,0.61,0,0,1,.56.59,0.81,0.81,0,0,1-.71.66,5.28,5.28,0,0,1-.71,0,5.93,5.93,0,0,1-1.3-.12,9.66,9.66,0,0,1-1.06-.35,4.6,4.6,0,0,0-1.45-.37H26a1.75,1.75,0,0,0-1.37.71,0.91,0.91,0,0,0-.07.82,1.37,1.37,0,0,0,1.2.39,6.25,6.25,0,0,0,.85-0.07l1.1-.15a36.49,36.49,0,0,1,4.3-.46,3.22,3.22,0,0,1,1.08.14A1.54,1.54,0,0,1,34.17,310a1,1,0,0,1-.54.9,1.59,1.59,0,0,1-.49.12c-0.25,0-5.52,1.24-5.83,1.23a7.72,7.72,0,0,0-1,0l-0.28,0a1.11,1.11,0,0,0-.74.39,0.52,0.52,0,0,0,0,.42,0.84,0.84,0,0,0,.88.59,1.44,1.44,0,0,0,.57-0.2,73,73,0,0,1,7.36-2.06h0.22a0.94,0.94,0,0,1,.76.64,1,1,0,0,1-.11,1,3.54,3.54,0,0,1-1.78.93,9.43,9.43,0,0,0-1.14.42,1.35,1.35,0,0,0-.74.75,0.88,0.88,0,0,0,0,.64,0.74,0.74,0,0,0,.61.22,1.09,1.09,0,0,0,.76-0.3,12.63,12.63,0,0,1,2.62-2.06,1.18,1.18,0,0,1,.53,0,1.67,1.67,0,0,1,.44,2.86l-0.81,1.1a48.56,48.56,0,0,1-3.27,3.76,6,6,0,0,0-2,3.3,0.68,0.68,0,0,0,.18.5,0.87,0.87,0,0,0,.64.27,1.15,1.15,0,0,0,.59-0.18,5.88,5.88,0,0,0,1.45-2l0,0c0.88-1.62,2.16-.53,2.73-1.52l0.4-.68c0.33-1,1.22-1.42,2-.64a7.57,7.57,0,0,0,.56.61c0.2,0.22.2,0.74,0.4,1,0.85,1,1-.39,1.18,1,0.22,2.25-1.46,7.13.56,7,1.15,0-.11-4,0.22-6.18,0.11-.67.56-1.69,1.35-1.24,0.57,0.34-.41,1.78.45,1.91s0.28-2.61.39-4.07c0.11-.67,1-1.66,1.29-1.09,1.24,1.91.78,4.16,1,6.29a7.21,7.21,0,0,0,.68,2.22,0.88,0.88,0,0,0,.76.5,1.12,1.12,0,0,0,.77-0.22,1.7,1.7,0,0,0,.6-0.52,6.38,6.38,0,0,0,.45-3.22c0-.86-1.4-0.86-1.85-1.49a4,4,0,0,1-.42-0.66,9.62,9.62,0,0,1-.42-0.9c0-.26-0.11-0.53-0.18-0.81-0.36-1.38-.71-2.1.38-3.3a1.25,1.25,0,0,1,.94,0c1.47,0.56,1.31,1.67,2.21,2.91a1.3,1.3,0,0,0,1.67.09,0.84,0.84,0,0,0,.41-0.66,1.05,1.05,0,0,0-.23-0.87,3.66,3.66,0,0,0-.64-0.44,1.89,1.89,0,0,1-1.5-2.18,1,1,0,0,1,.39-0.9c0.27-.21-0.38-1.28,0-1.28a1.41,1.41,0,0,1,.48.08,4.83,4.83,0,0,1,1.7,1.69,5.13,5.13,0,0,0,1.21,1,2.47,2.47,0,0,0,1.28.48,0.54,0.54,0,0,0,.27-0.06,0.91,0.91,0,0,0,.44-0.66,1.05,1.05,0,0,0-.41-0.84,3.58,3.58,0,0,0-1.58-.76c-0.84-.2-0.93-0.58-0.9-0.78a0.62,0.62,0,0,1,.67-0.49l0.2,0a2.18,2.18,0,0,0,.45.05,0.78,0.78,0,0,0,.57-0.17A0.41,0.41,0,0,0,54.2,313a0.57,0.57,0,0,0-.49-0.27,12.23,12.23,0,0,1-2-.38c-0.75-.21-1.41-0.48-1.37-1.06a1,1,0,0,1,1.2-.78l0.42,0a8.89,8.89,0,0,1,1.73.46c0.24,0.08.46,0.16,0.67,0.22a15.84,15.84,0,0,1,3.11,1.58,3.94,3.94,0,0,0,2,.71,0.6,0.6,0,0,0,.28,0,0.56,0.56,0,0,0,0-1,0.6,0.6,0,0,1-.2-0.65,0.78,0.78,0,0,1,.76-0.5h0.17a6.5,6.5,0,0,1,1.64.27,6.14,6.14,0,0,0,1.46.24h0.13a0.9,0.9,0,0,0,.82-0.48,1,1,0,0,0-.08-1m-8.14-5.24a0.73,0.73,0,0,0,.8-0.65,0.7,0.7,0,0,0-1-.56,0.69,0.69,0,0,0-.51.83,0.62,0.62,0,0,0,.71.38M33,297.23a1,1,0,0,0,.1-1,0.47,0.47,0,0,0-.63-0.33,0.74,0.74,0,0,0-.2,1,0.55,0.55,0,0,0,.73.32m10.2,30a1.42,1.42,0,0,0-.13,1.82c0.77,0.69,1.2-.23,1-1.14-0.11-.58-0.64-0.95-0.91-0.68m-12.46-8.47a1,1,0,0,0,.41-1.18,1,1,0,0,0-1.32-.45,1,1,0,0,0-.18,1.37,0.88,0.88,0,0,0,1.09.26" transform="translate(-24.49 -288.58)"/></g></svg>