<svg id="レイヤー_1" data-name="レイヤー 1" xmlns="http://www.w3.org/2000/svg" viewBox="0 0 47.07 42.61"><title>5</title><g id="g412"><path id="path414" d="M95.59,322.06a1,1,0,0,0,.41-1.17,0.94,0.94,0,0,0-1.31-.45,1,1,0,0,0-.17,1.37,0.86,0.86,0,0,0,1.08.25M108,323.35c-0.26-.15-0.55.16-0.6,0.71a0.88,0.88,0,0,0,.42,1,0.67,0.67,0,0,0,.56-0.77,1,1,0,0,0-.38-1m8.47,5.42a1,1,0,0,0-.81.93,0.72,0.72,0,0,0,.84.83,0.9,0.9,0,0,0,.86-1.09,0.79,0.79,0,0,0-.88-0.67m3.53-7.4a1.17,1.17,0,0,0,0,1.24,0.94,0.94,0,0,0,1.29.51,0.8,0.8,0,0,0,.13-1.33,1,1,0,0,0-1.44-.42M101.17,305.8a1.57,1.57,0,0,1-1.08.49,5.33,5.33,0,0,0,.39-2.67,2.27,2.27,0,0,0,.26.27,2.05,2.05,0,0,1,.62,1.27,0.79,0.79,0,0,1-.19.65m-2.87,4.29a0.87,0.87,0,0,1-.52.14,2.32,2.32,0,0,1-1.26-.45,6.46,6.46,0,0,0-.6-0.38,5.49,5.49,0,0,0,2.26-.86,1.57,1.57,0,0,0,.17.54,0.75,0.75,0,0,1-.06,1m31,3.53a2.48,2.48,0,0,0-2.14-.77,7,7,0,0,0-.76,0c-0.36,0-.69.09-1,0.14a18.06,18.06,0,0,1-2.21.24l-0.93,0a19.83,19.83,0,0,1-2.27-.12l-0.69-.08a19.57,19.57,0,0,1-2.14-.31,2.77,2.77,0,0,0-.47,0c-0.42,0-1.12,0-1.12-.7a1.55,1.55,0,0,1,1-1.41,1.23,1.23,0,0,1,.53-0.1c0.17,0,.36,0,0.56,0a5.86,5.86,0,0,0,.64,0,1.52,1.52,0,0,0,.89-0.23,0.44,0.44,0,0,0,.21-0.49,0.71,0.71,0,0,0-.44-0.53,2.55,2.55,0,0,0-.51-0.05,3.93,3.93,0,0,0-1.93.64,1,1,0,0,1-.5.14,0.89,0.89,0,0,1-.79-0.52,1,1,0,0,1,.75-1.4,2.09,2.09,0,0,0,1.39-.79,0.71,0.71,0,0,0,0-.61,0.48,0.48,0,0,0-.49-0.34,1,1,0,0,0-.76.45,1.42,1.42,0,0,1-1.1.65,0.85,0.85,0,0,1-.65-0.31,1.12,1.12,0,0,1,.18-1.72c0.4-.35,1.4-1.51,1.69-1.7s1.77-1.6,2.23-2a1.56,1.56,0,0,0,.54-1.15,0.39,0.39,0,0,0-.17-0.31,1.08,1.08,0,0,0-.57-0.17,0.78,0.78,0,0,0-.71.39,40.91,40.91,0,0,1-3.52,4.65,1,1,0,0,1-.72.41,0.89,0.89,0,0,1-.47-0.16,1.36,1.36,0,0,1-.13-1.56,1.06,1.06,0,0,0,.05-1.13,1.35,1.35,0,0,1,.13-1.49c0.62-.89,2-2.67,2.89-3.85l0.62-.82a2.31,2.31,0,0,0,.5-1.77,0.62,0.62,0,0,0-.34-0.45,1.29,1.29,0,0,0-.52-0.11,1.49,1.49,0,0,0-1.34,1.1c-0.78,2-2.73,6.6-3.82,7.1a2.34,2.34,0,0,0-.84.58,1,1,0,0,1-.86.38,4.68,4.68,0,0,1-.77-0.08,1.19,1.19,0,0,1-.85-0.58c-0.32-.55-0.18-4.55,0-4.92a1.68,1.68,0,0,0-.1-1.35,0.6,0.6,0,0,0-.52-0.28h-0.07a0.87,0.87,0,0,0-.76.29,1.7,1.7,0,0,0,0,1.44,18.31,18.31,0,0,1-.11,4.42,0.73,0.73,0,0,1-.61.29l-0.21,0c-0.62-.12-1.29-1.48-1.53-3.1a36.77,36.77,0,0,1-.34-5.81,2,2,0,0,0-.54-1.38,1.52,1.52,0,0,0-1.08-.49,1.46,1.46,0,0,0-.77.23,2.06,2.06,0,0,0-1,2.56c0.14,0.44.86,1.89,1.48,3.17a14.46,14.46,0,0,1,.71,1.55l0.07,0.2c0.75,2,.33,1.1.68,1.7,0.18,0.32.15,1.18-.12,1.18-0.6,0-.86,0-1-0.61a0.69,0.69,0,0,0-.51-0.65,0.93,0.93,0,0,0-.35-0.07,2.56,2.56,0,0,0-1,.3,4.87,4.87,0,0,0-.68-1.14c-0.7-.82,1.42-0.38,1.2-1.66a1.84,1.84,0,0,0-2-1.64c-1.15.3,0.08,1.77-1.22,1.35a4.18,4.18,0,0,0-2.51-.16c-1.57.38-1.83,1.2-2.56,0.7s0.56-1.68-1.43-3c-1.42-.94,1.58-1.2.44-3.23a3.34,3.34,0,0,0-5-.91c-1.94,1.67,1.07,2.94,0,3.36s-2.34.67-3.18,2.09a5,5,0,0,0-.12,4.3,5.62,5.62,0,0,0,2.13,2.81,3.87,3.87,0,0,0,3.61.33c1.65-.58,1.58-1.76,2.16-1.22s-0.43,1.58.6,3.66a3.92,3.92,0,0,0,.33.57l-0.27,0a1,1,0,0,0-.93.72,0.76,0.76,0,0,0,.93.86,1.25,1.25,0,0,0,1.18-.61,4.91,4.91,0,0,0,1.53.71,3.62,3.62,0,0,0,.44.09,0.26,0.26,0,0,0,0,.09,2,2,0,0,0,1.05.5,0.6,0.6,0,0,1,.56.59,0.8,0.8,0,0,1-.71.65,5.23,5.23,0,0,1-.72,0,6.05,6.05,0,0,1-1.3-.12,9.05,9.05,0,0,1-1.06-.35,4.62,4.62,0,0,0-1.45-.37H90.82a1.74,1.74,0,0,0-1.37.71,0.88,0.88,0,0,0-.07.81,1.35,1.35,0,0,0,1.2.4,6.24,6.24,0,0,0,.85-0.07l1.09-.15a36.76,36.76,0,0,1,4.3-.46,3.22,3.22,0,0,1,1.08.14A1.55,1.55,0,0,1,99,313.23a1,1,0,0,1-.54.9,1.63,1.63,0,0,1-.48.12c-0.27,0-5.53,1.24-5.84,1.23a8.21,8.21,0,0,0-1,0l-0.28,0a1.1,1.1,0,0,0-.74.39,0.51,0.51,0,0,0,0,.42,0.85,0.85,0,0,0,.89.59,1.31,1.31,0,0,0,.56-0.2,74,74,0,0,1,7.36-2.06h0.22a1,1,0,0,1,.76.64,1.05,1.05,0,0,1-.11,1,3.53,3.53,0,0,1-1.78.93,10,10,0,0,0-1.15.43,1.34,1.34,0,0,0-.73.74,0.93,0.93,0,0,0,0,.64,0.75,0.75,0,0,0,.61.22,1.09,1.09,0,0,0,.77-0.3,12.57,12.57,0,0,1,2.62-2.06,1.91,1.91,0,0,1,.53-0.08,1.06,1.06,0,0,1,.83.35,1.55,1.55,0,0,1,.26,1.25,9.59,9.59,0,0,1-1.47,2.38A47.58,47.58,0,0,1,97,324.6a5.92,5.92,0,0,0-2,3.3,0.64,0.64,0,0,0,.18.5,0.88,0.88,0,0,0,.64.28,1.14,1.14,0,0,0,.59-0.18,5.87,5.87,0,0,0,1.45-2l0,0c1.32-2.43,2.29-4.17,2.91-5.16l0.11-.18c0.44-.72.65-0.39,1.55-0.73a2.69,2.69,0,0,1,.9-0.16c0.76,0,1.68-.81,1.84-0.31a4.34,4.34,0,0,1-.32,2.6,0.58,0.58,0,0,0,0,.56,0.44,0.44,0,0,0,.41.23,0.84,0.84,0,0,0,.8-0.94,5.48,5.48,0,0,0-.14-1.22,2,2,0,0,1,0-1,0.62,0.62,0,0,1,.57-0.49,0.9,0.9,0,0,1,.72.49,2.2,2.2,0,0,1,.22,1.14c0,0.6.06,0.63,0.2,0.63h0a0.37,0.37,0,0,0,.34-0.13,0.48,0.48,0,0,0,0-.46,1.67,1.67,0,0,1-.24-1.24,0.68,0.68,0,0,1,.63-0.59,1,1,0,0,1,.66.34,8.65,8.65,0,0,1,1,2.63c0.07,0.26.15,0.52,0.23,0.78s0.2,0.7.33,1.15c0.21,0.77.49,1.72,0.78,2.64,0.51,1.6,1.3,2.56,2.11,2.56h0.17a0.75,0.75,0,0,0,.47-0.34,2.1,2.1,0,0,0,.2-1.6,7.79,7.79,0,0,0-1.76-3.15,14.59,14.59,0,0,1-1.93-3.15c-0.29-1-.24-1.63.15-1.9a1.34,1.34,0,0,1,.73-0.2,1.54,1.54,0,0,1,.82.23,11.52,11.52,0,0,1,1.86,2.94,2.28,2.28,0,0,0,.24.46,1.29,1.29,0,0,0,1,.59,1.41,1.41,0,0,0,.62-0.16,0.84,0.84,0,0,0,.42-0.65,1.06,1.06,0,0,0-.23-0.86,6.1,6.1,0,0,0-1.35-.81l-0.47-.24a2.94,2.94,0,0,1-.32-1.57,1,1,0,0,1,.39-0.91c0.28-.21-0.38-1.28,0-1.28a1.51,1.51,0,0,1,.49.08,4.84,4.84,0,0,1,1.7,1.69,5,5,0,0,0,1.22,1,2.44,2.44,0,0,0,1.27.48,0.51,0.51,0,0,0,.27-0.06,0.91,0.91,0,0,0,.44-0.66,1.08,1.08,0,0,0-.4-0.84,3.69,3.69,0,0,0-1.58-.76c-0.85-.2-0.93-0.57-0.9-0.78a0.61,0.61,0,0,1,.66-0.49l0.2,0a2.14,2.14,0,0,0,.45.05,0.78,0.78,0,0,0,.57-0.17,0.39,0.39,0,0,0,.12-0.37,0.55,0.55,0,0,0-.48-0.27,12.29,12.29,0,0,1-2-.38c-0.73-.21-1.42-0.48-1.37-1.06a1,1,0,0,1,1.21-.78l0.42,0a9.17,9.17,0,0,1,1.73.46l0.67,0.22a15.94,15.94,0,0,1,3.11,1.58,3.9,3.9,0,0,0,2,.71,0.66,0.66,0,0,0,.28,0,0.56,0.56,0,0,0,0-1,0.59,0.59,0,0,1-.19-0.65,0.78,0.78,0,0,1,.76-0.51h0.17a6.69,6.69,0,0,1,1.65.27,5.85,5.85,0,0,0,1.45.25h0.13a0.92,0.92,0,0,0,.83-0.48,1,1,0,0,0-.08-1m-43.51-5.15a0.51,0.51,0,0,0-.34.39,0.58,0.58,0,0,0,.24.6,0.48,0.48,0,0,0,.67-0.16,0.59,0.59,0,0,0,0-.55,0.54,0.54,0,0,0-.55-0.27m35.37-.09a0.73,0.73,0,0,0,.8-0.65,0.77,0.77,0,0,0-1.51.27,0.62,0.62,0,0,0,.71.38m-30.83.31a1.1,1.1,0,0,0-1-.86,1.14,1.14,0,0,0-1,.92,1.35,1.35,0,0,0,.37,1.14,0.91,0.91,0,0,0,1.24,0,1.16,1.16,0,0,0,.38-1.17m3-17.42a1.1,1.1,0,0,0-.72.68,0.75,0.75,0,0,0,.4.94,1.12,1.12,0,0,0,1.31-.36,0.81,0.81,0,0,0,0-.9,0.93,0.93,0,0,0-1-.36m-0.81-1.15a1,1,0,0,0,1.47-.35,1.27,1.27,0,0,0-.05-1.22,1.18,1.18,0,0,0-1.21-.6,1.12,1.12,0,0,0-.75.85,1.27,1.27,0,0,0,.54,1.32" transform="translate(-82.38 -287.92)"/></g></svg>