<svg id="レイヤー_1" data-name="レイヤー 1" xmlns="http://www.w3.org/2000/svg" viewBox="0 0 40.15 38.68"><title>6</title><g id="g408"><path id="path410" d="M178.72,319.4a1.17,1.17,0,0,0,0,1.24,0.94,0.94,0,0,0,1.29.51,0.8,0.8,0,0,0,.12-1.33,1,1,0,0,0-1.44-.42m-27.41-13a1.14,1.14,0,0,0-1.19-.72,1,1,0,0,0-.93.72,0.77,0.77,0,0,0,.93.86,1,1,0,0,0,1.19-.86M188,311.65a2.47,2.47,0,0,0-2.14-.77c-0.24,0-.5,0-0.76,0s-0.68.09-1,.14a18.43,18.43,0,0,1-2.21.24l-0.94,0a19.94,19.94,0,0,1-2.26-.11l-0.69-.08a18.54,18.54,0,0,1-2.14-.31,2.51,2.51,0,0,0-.46,0c-0.42,0-1.12,0-1.12-.7a1.55,1.55,0,0,1,1-1.4,1.18,1.18,0,0,1,.53-0.1,5.16,5.16,0,0,1,.56,0,6.07,6.07,0,0,0,.64,0,1.5,1.5,0,0,0,.88-0.23,0.45,0.45,0,0,0,.21-0.49,0.7,0.7,0,0,0-.44-0.52,2.51,2.51,0,0,0-.52-0.05,3.92,3.92,0,0,0-1.93.64,1,1,0,0,1-.5.14,0.88,0.88,0,0,1-.78-0.52,1,1,0,0,1,0-.85,1,1,0,0,1,.76-0.54,2.06,2.06,0,0,0,1.39-.79,0.7,0.7,0,0,0,0-.61,0.49,0.49,0,0,0-.49-0.34,1,1,0,0,0-.76.45,1.42,1.42,0,0,1-1.09.65,0.84,0.84,0,0,1-.66-0.31,1.12,1.12,0,0,1,.18-1.72c0.4-.35,1.4-1.51,1.69-1.7s1.77-1.6,2.23-2a1.57,1.57,0,0,0,.53-1.15,0.36,0.36,0,0,0-.17-0.3,1.09,1.09,0,0,0-.58-0.17,0.78,0.78,0,0,0-.71.39,39.59,39.59,0,0,1-3.53,4.65,1,1,0,0,1-.71.41,0.86,0.86,0,0,1-.47-0.16,1.35,1.35,0,0,1-.13-1.55,1,1,0,0,0,.06-1.13,1.35,1.35,0,0,1,.12-1.49c0.62-.89,2-2.67,2.89-3.85l0.63-.82a2.33,2.33,0,0,0,.49-1.78,0.65,0.65,0,0,0-.34-0.45,1.31,1.31,0,0,0-.52-0.11,1.49,1.49,0,0,0-1.33,1.1c-0.79,2-2.73,6.6-3.82,7.1a2.37,2.37,0,0,0-.84.58,1,1,0,0,1-.86.38,4.78,4.78,0,0,1-.78-0.08,1.19,1.19,0,0,1-.85-0.58c-0.32-.55-0.18-4.55,0-4.92a1.65,1.65,0,0,0-.1-1.36,0.61,0.61,0,0,0-.52-0.28h-0.08a0.86,0.86,0,0,0-.75.3,1.69,1.69,0,0,0,0,1.44,18,18,0,0,1-.11,4.42,0.72,0.72,0,0,1-.61.29l-0.22,0c-0.62-.12-1.29-1.48-1.52-3.1a36.92,36.92,0,0,1-.34-5.81,1.94,1.94,0,0,0-.54-1.38,1.49,1.49,0,0,0-1.07-.49,1.45,1.45,0,0,0-.77.23,2,2,0,0,0-1,2.56c0.14,0.44.85,1.89,1.48,3.17a11.49,11.49,0,0,1,.7,1.55l0.08,0.2c0.75,2,.33,1.1.67,1.69,0.18,0.32.16,1.18-.12,1.18-0.61,0-.86,0-1-0.61a0.7,0.7,0,0,0-.51-0.65,1,1,0,0,0-.35-0.07c-0.1.07-2.18,0-.84,2a7,7,0,0,0,.68.8,2,2,0,0,1,.62,1.27,0.77,0.77,0,0,1-.19.65,1.55,1.55,0,0,1-1.11.49,1.7,1.7,0,0,1-1-.32c-0.6-.4-1.61-1.26-2.42-2l-0.69-.58a40.42,40.42,0,0,1-4.28-4.42,1.77,1.77,0,0,0-1.29-.65,1.05,1.05,0,0,0-.77.32,0.6,0.6,0,0,0-.05.5,2.92,2.92,0,0,0,1.72,2l0.27,0.12a5.43,5.43,0,0,1,2.4,1.64,0.65,0.65,0,0,1,.1.68,0.44,0.44,0,0,1-.4.22,1.59,1.59,0,0,1-1-.48,0.86,0.86,0,0,0-.57-0.21,0.6,0.6,0,0,0-.48.19,0.44,0.44,0,0,0,0,.4c0.19,0.61,1.17,1,3.48,1.23a8.54,8.54,0,0,1,3.48,1.51,1.08,1.08,0,0,1,.51.87,1,1,0,0,1-.55.69c-0.52.3-.42,0.57-0.21,1.06a0.76,0.76,0,0,1-.06,1,0.9,0.9,0,0,1-.52.14,2.31,2.31,0,0,1-1.26-.45,3.49,3.49,0,0,0-1.63-.75,0.4,0.4,0,0,0-.16,0,0.28,0.28,0,0,0-.2.43,2,2,0,0,0,1,.5,0.59,0.59,0,0,1,.56.59,0.79,0.79,0,0,1-.7.65,5.24,5.24,0,0,1-.72,0,6.11,6.11,0,0,1-1.29-.12,9,9,0,0,1-1.06-.36,4.66,4.66,0,0,0-1.44-.37h-0.09a1.73,1.73,0,0,0-1.37.71,0.88,0.88,0,0,0-.07.81,1.37,1.37,0,0,0,1.2.39,6.84,6.84,0,0,0,.85-0.06l1.1-.15a36.48,36.48,0,0,1,4.3-.46,3.15,3.15,0,0,1,1.08.14,1.53,1.53,0,0,1,1.08,1.41,1,1,0,0,1-.54.9,1.52,1.52,0,0,1-.49.12c-0.26,0-5.51,1.24-5.83,1.23a7.37,7.37,0,0,0-1,0l-0.28,0a1.11,1.11,0,0,0-.74.39,0.5,0.5,0,0,0,0,.42,0.84,0.84,0,0,0,.88.59,1.46,1.46,0,0,0,.57-0.2,73.18,73.18,0,0,1,7.35-2.06h0.22a0.94,0.94,0,0,1,.76.64,1.06,1.06,0,0,1-.11,1,3.55,3.55,0,0,1-1.78.94,9.9,9.9,0,0,0-1.15.42,1.32,1.32,0,0,0-.73.74,0.94,0.94,0,0,0,0,.64,0.76,0.76,0,0,0,.61.22,1.11,1.11,0,0,0,.77-0.3,12.35,12.35,0,0,1,2.62-2.06,2,2,0,0,1,.52-0.08,1.07,1.07,0,0,1,.84.35,1.53,1.53,0,0,1,.25,1.25,9.34,9.34,0,0,1-1.47,2.38,47.55,47.55,0,0,1-3.26,3.76,6,6,0,0,0-2,3.3,0.65,0.65,0,0,0,.18.5,0.86,0.86,0,0,0,.64.28,1.12,1.12,0,0,0,.59-0.18,5.81,5.81,0,0,0,1.45-2l0,0c1.31-2.43,2.29-4.17,2.91-5.16l0.11-.18c0.44-.72.64-0.39,1.55-0.73a2.63,2.63,0,0,1,.9-0.16c0.76,0,1.68-.81,1.85-0.31a4.39,4.39,0,0,1-.33,2.6,0.57,0.57,0,0,0,0,.56,0.44,0.44,0,0,0,.41.23,0.84,0.84,0,0,0,.8-0.94,5.39,5.39,0,0,0-.14-1.22,2,2,0,0,1-.05-1,0.62,0.62,0,0,1,.58-0.49,0.89,0.89,0,0,1,.71.5,2.13,2.13,0,0,1,.23,1.14c0,0.6.06,0.63,0.21,0.64h0a0.37,0.37,0,0,0,.34-0.13,0.51,0.51,0,0,0,0-.46,1.68,1.68,0,0,1-.24-1.24,0.68,0.68,0,0,1,.63-0.59,1,1,0,0,1,.66.34,8.5,8.5,0,0,1,1,2.63c0.07,0.25.15,0.52,0.23,0.78s0.2,0.7.33,1.15c0.22,0.77.48,1.72,0.78,2.65,0.51,1.6,1.3,2.56,2.11,2.56h0.17a0.73,0.73,0,0,0,.47-0.34,2.11,2.11,0,0,0,.2-1.6,7.8,7.8,0,0,0-1.76-3.15,14.57,14.57,0,0,1-1.93-3.15c-0.29-1-.24-1.63.16-1.9a1.3,1.3,0,0,1,.73-0.2,1.57,1.57,0,0,1,.83.23,11.82,11.82,0,0,1,1.86,2.93,3,3,0,0,0,.23.46,1.32,1.32,0,0,0,1,.59,1.41,1.41,0,0,0,.62-0.16,0.82,0.82,0,0,0,.41-0.65,1.08,1.08,0,0,0-.23-0.87,6.31,6.31,0,0,0-1.36-.81l-0.46-.24a2.85,2.85,0,0,1-.32-1.57,1,1,0,0,1,.39-0.91c0.27-.21-0.38-1.28,0-1.28a1.3,1.3,0,0,1,.48.08,4.76,4.76,0,0,1,1.71,1.69,5,5,0,0,0,1.22,1.05,2.47,2.47,0,0,0,1.27.48,0.5,0.5,0,0,0,.27-0.06,0.89,0.89,0,0,0,.44-0.66,1,1,0,0,0-.4-0.84,3.61,3.61,0,0,0-1.58-.76c-0.85-.2-0.93-0.58-0.9-0.78a0.62,0.62,0,0,1,.66-0.49l0.2,0a2,2,0,0,0,.45.05,0.79,0.79,0,0,0,.57-0.17,0.4,0.4,0,0,0,.12-0.37,0.57,0.57,0,0,0-.49-0.27,12.31,12.31,0,0,1-2-.38c-0.74-.21-1.42-0.48-1.37-1.06a1,1,0,0,1,1.2-.78l0.42,0a9.15,9.15,0,0,1,1.73.46l0.67,0.22a15.78,15.78,0,0,1,3.1,1.58,4,4,0,0,0,2,.71,0.62,0.62,0,0,0,.28,0,0.56,0.56,0,0,0,.3-0.45,0.57,0.57,0,0,0-.26-0.52,0.59,0.59,0,0,1-.2-0.65,0.78,0.78,0,0,1,.76-0.51h0.17a6.65,6.65,0,0,1,1.65.27,6,6,0,0,0,1.45.24h0.13a0.93,0.93,0,0,0,.83-0.48,1,1,0,0,0-.08-1M175.2,326.81a1,1,0,0,0-.82.93,0.72,0.72,0,0,0,.83.83,0.89,0.89,0,0,0,.86-1.09,0.78,0.78,0,0,0-.88-0.67m4.7-20.4a0.73,0.73,0,0,0,.8-0.65,0.77,0.77,0,0,0-1.52.27,0.63,0.63,0,0,0,.71.38m-23.29-7.87a0.93,0.93,0,0,0,.1-1,0.46,0.46,0,0,0-.63-0.33,0.73,0.73,0,0,0-.19,1,0.54,0.54,0,0,0,.72.32m-2.26,21.56a1,1,0,0,0,.4-1.18,0.94,0.94,0,0,0-1.31-.46,1,1,0,0,0-.18,1.37,0.87,0.87,0,0,0,1.08.26m12.38,1.29c-0.27-.15-0.55.16-0.6,0.72a0.88,0.88,0,0,0,.42,1,0.67,0.67,0,0,0,.56-0.77,1,1,0,0,0-.38-1" transform="translate(-148.07 -289.89)"/></g></svg>