<svg id="レイヤー_1" data-name="レイヤー 1" xmlns="http://www.w3.org/2000/svg" viewBox="0 0 37.82 44.34"><title>7</title><g id="g392"><path id="path394" d="M28.78,391.66a0.71,0.71,0,0,0-.67.34,1.23,1.23,0,0,0-.17.89,0.75,0.75,0,0,0,.31.51,1,1,0,0,0,.69.28,0.65,0.65,0,0,0,.46-0.22,1.13,1.13,0,0,0,.26-1.34,0.89,0.89,0,0,0-.88-0.48m26.28-.78h0a0.77,0.77,0,0,0-.63,1,0.83,0.83,0,0,0,.68.95h0a1.1,1.1,0,0,0,.78-1.09,0.82,0.82,0,0,0-.83-0.84m8.38-17.25a1.49,1.49,0,0,0-1.56-.92,2,2,0,0,0-.55.11,15.22,15.22,0,0,0-2.59,1.43c-0.43.27-.83,0.53-1.13,0.69a1.26,1.26,0,0,1-.54.17,0.47,0.47,0,0,1-.53-0.46,0.45,0.45,0,0,1,.39-0.51H57.1a0.86,0.86,0,0,0,.83-0.41,0.46,0.46,0,0,0-.11-0.49,0.33,0.33,0,0,0-.26-0.12,1.1,1.1,0,0,0-.45.19,1.21,1.21,0,0,1-.52.21,0.58,0.58,0,0,1-.54-0.37,1.21,1.21,0,0,1,0-1.07,0.73,0.73,0,0,1,.59-0.4,1.79,1.79,0,0,0,1.38-.54,0.46,0.46,0,0,0,0-.45,0.16,0.16,0,0,0-.17-0.11,2.33,2.33,0,0,0-.87.45,6.28,6.28,0,0,1-.63.38,0.84,0.84,0,0,1-.35.1,1.46,1.46,0,0,1-1.11-.8l0,0a1.61,1.61,0,0,1-.29-1.29,0.81,0.81,0,0,1,.59-0.51,1.28,1.28,0,0,0,1.19-1.14,0.8,0.8,0,0,0-.79-0.66H55.42a1.28,1.28,0,0,0-1,.93,0.27,0.27,0,0,0,0,.08,0.62,0.62,0,0,1-.52.4,0.66,0.66,0,0,1-.48-0.2,0.94,0.94,0,0,1-.3-0.63,1.39,1.39,0,0,1,.88-1.32A2,2,0,0,0,55.3,365a0.4,0.4,0,0,0-.3-0.33,0.58,0.58,0,0,0-.25,0A2.15,2.15,0,0,0,53.38,366a1.11,1.11,0,0,1-.78.65,0.65,0.65,0,0,1-.27,0,0.76,0.76,0,0,1-.44-0.58,1.21,1.21,0,0,1,.47-1.12,3.35,3.35,0,0,0,1.19-2.53A1.69,1.69,0,0,0,52,360.77c-0.84,0-1.23,1.31-1.46,2.06s-0.47,1.25-1,1.27a1.11,1.11,0,0,1-1-1.6c0-.12,0-0.23.05-0.33,0.09-.51.08-0.65-0.1-0.7H48.4a1,1,0,0,0-.36,1,1,1,0,0,1-1.08.93,2,2,0,0,1-.54,0,1.35,1.35,0,0,1-1.23-1.42,0.81,0.81,0,0,0-.22-0.58,0.6,0.6,0,0,0-.45-0.16,0.72,0.72,0,0,0-.53.26,0.57,0.57,0,0,0-.11.48,1.15,1.15,0,0,1-.22.9,1.14,1.14,0,0,1-.87.41,2.21,2.21,0,0,1-.69-0.09c-1.21-.34-1.34-1.52-1.32-2.62a0.58,0.58,0,0,0-.14-0.45,0.4,0.4,0,0,0-.3-0.11,0.4,0.4,0,0,0-.32.18,0.69,0.69,0,0,0,0,.65l0,0.1c0.37,0.77.86,1.83,0.53,2.46a1.37,1.37,0,0,1-2.25.13,1,1,0,0,0-.74-0.37,0.36,0.36,0,0,0-.29.14,0.73,0.73,0,0,0,0,.62l0,0.06c0.17,0.55.31,1-.18,1.32a0.74,0.74,0,0,1-.35.11c-0.74,0-1.34-1.2-2.17-3.1a1.21,1.21,0,0,0-.82-0.89,0.37,0.37,0,0,0-.32.3,0.85,0.85,0,0,0,.38.93A7.5,7.5,0,0,1,36,365.79a1,1,0,0,1-.24.73,1.27,1.27,0,0,1-.88.41,0.79,0.79,0,0,1-.48-0.11,1.82,1.82,0,0,1-.49-0.55,0.85,0.85,0,0,0-.57-0.47,0.88,0.88,0,0,0-.23,0,0.49,0.49,0,0,0-.39.18,0.43,0.43,0,0,0,0,.39,1,1,0,0,0,.62.59,1.44,1.44,0,0,1,.75.62,0.68,0.68,0,0,1,0,.65,0.63,0.63,0,0,1-.52.31,0.84,0.84,0,0,1-.26,0,8.43,8.43,0,0,1-3.4-2.17,0.34,0.34,0,0,0-.32-0.16,0.46,0.46,0,1,0-.09.91l0.56,0.25c1,0.43,2.65,1.15,3,2.1a0.71,0.71,0,0,1-.05.67,0.76,0.76,0,0,1-.6.29,1.06,1.06,0,0,1-.36,0,2.44,2.44,0,0,1-.76-0.49,1.69,1.69,0,0,0-.9-0.5,0.44,0.44,0,0,0-.33.21,0.36,0.36,0,0,0-.06.38,2.64,2.64,0,0,0,1.81.92,0.44,0.44,0,0,1,.46.44,0.5,0.5,0,0,1-.46.46,0.48,0.48,0,0,1-.29-0.09,1,1,0,0,0-.6-0.21,0.36,0.36,0,0,0-.37.32,0.52,0.52,0,0,0,.55.45,0.67,0.67,0,0,1,.6.45,1.35,1.35,0,0,1-.33,1.2,1.55,1.55,0,0,1-1.08.48,3.31,3.31,0,0,1-1.55-.39,1.85,1.85,0,0,0-.88-0.21,1.15,1.15,0,0,0-.8.38,1.55,1.55,0,0,0-.38,1.11,1.39,1.39,0,0,0,1.54,1.34,2.94,2.94,0,0,0,.78-0.15,5.74,5.74,0,0,1,1.48-.3,1.4,1.4,0,0,1,1.14.32,0.54,0.54,0,0,1,.11.49c-0.08.38-.53,0.6-1.32,0.64-0.22,0-.43,0-0.57,0H29.63c-0.36,0-.56.16-0.56,0.38a0.68,0.68,0,0,0,.69.58,0.65,0.65,0,0,0,.25-0.06,4,4,0,0,1,1.34-.47,0.64,0.64,0,0,1,.51.17,2.07,2.07,0,0,1,.37,1.55,0.87,0.87,0,0,1-.52.68,5.52,5.52,0,0,1-1.28.33,9.63,9.63,0,0,0-1.38.32,0.88,0.88,0,0,0-.67,1,0.7,0.7,0,0,0,.79.57l0.16,0a4.57,4.57,0,0,0,1.48-.48,3.58,3.58,0,0,1,1-.39l0.18,0a1.13,1.13,0,0,1,1,.41,1.74,1.74,0,0,1,.33,1c0,0.89-.89,2-2,2.82a1.67,1.67,0,0,0-1,1.3,0.42,0.42,0,0,0,.27.39l0.15,0a1.19,1.19,0,0,0,.82-0.55c0.08-.1.15-0.27,0.23-0.36l0.06-.08a2.56,2.56,0,0,1,1.27-1,0.35,0.35,0,0,1,.28.08,0.85,0.85,0,0,1,0,.48,4.56,4.56,0,0,0,0,.65,1.24,1.24,0,0,1,0,1l-0.16.16a1.88,1.88,0,0,0-.73,1.44,0.38,0.38,0,0,0,.17.29h0a1.38,1.38,0,0,0,.62-0.6c1.1-1.28,2.28,1,2.54,5.06,0.44,6.73,5.43,7,6.07,2.77,0.52-3.42,2.63-6.44,3.23,2.94,0.2,3.07,3.75,2.7,3.9-1.35,0.06-1.77.09-3.76,1.28-3.82s1.25-4.39,1.27-4.66c0-.67.62-1,0.91-0.51a2.42,2.42,0,0,0,.34.49,0.37,0.37,0,0,0,.29.13,0.45,0.45,0,0,0,.36-0.25,0.56,0.56,0,0,0,0-.58,5.41,5.41,0,0,0-.57-0.71,0.75,0.75,0,0,1-.13-0.83,1.49,1.49,0,0,1,.93-0.62,0.57,0.57,0,0,0,.33-0.18,0.65,0.65,0,0,0,.18-0.61,0.73,0.73,0,0,0-.15-0.28,0.87,0.87,0,0,1,.26-1,0.9,0.9,0,0,1,1.05.15,8.36,8.36,0,0,1,1.23,1.3,1.49,1.49,0,0,0,1.22.54,1.18,1.18,0,0,0,.41-2.28,6.53,6.53,0,0,0-2.08-.54c-0.25,0-.47-0.07-0.62-0.11a1.13,1.13,0,0,1-.74-0.51,0.92,0.92,0,0,1-.06-0.75,1,1,0,0,1,.86-0.67,0.86,0.86,0,0,1,.37.06l0.38,0.18a1.48,1.48,0,0,0,.61.22,0.25,0.25,0,0,0,.22-0.18,0.31,0.31,0,0,0,0-.32,1.64,1.64,0,0,0-1.27-.41,0.67,0.67,0,0,1-.75-0.56,0.51,0.51,0,0,1,.57-0.45h0.06a1,1,0,0,1,.61.22,0.86,0.86,0,0,0,.6.2l0.27,0a0.49,0.49,0,0,0,.39-0.37,0.72,0.72,0,0,0-.18-0.68,0.66,0.66,0,0,0-.5-0.15,3.1,3.1,0,0,0-.43.07,2.82,2.82,0,0,1-.42.07H56a0.77,0.77,0,0,1-.58-0.9,1.17,1.17,0,0,1,1-1.21h0.06a8.72,8.72,0,0,1,2.72.7,1.8,1.8,0,0,0,.85.24,0.54,0.54,0,0,0,.51-0.38,0.3,0.3,0,0,0,0-.3,1.72,1.72,0,0,0-1.27-.46l-1.51-.09-1-.06a0.64,0.64,0,0,1-.57-0.69,0.57,0.57,0,0,1,.52-0.62,0.7,0.7,0,0,1,.21,0l0.57,0.16a5.6,5.6,0,0,0,1.48.31,0.53,0.53,0,0,0,.44-0.21,0.51,0.51,0,0,0,.11-0.53,0.52,0.52,0,0,0-.5-0.21,0.32,0.32,0,0,1-.36-0.23c0-.12,0-0.36.6-0.56a2.75,2.75,0,0,1,.8-0.16,5.67,5.67,0,0,1,1,.06,5.86,5.86,0,0,0,1,.06,2.77,2.77,0,0,0,.7-0.12,1,1,0,0,0,.71-1.27m-0.6,4.69h0a0.72,0.72,0,0,0-.58.87,0.57,0.57,0,0,0,.65.52h0.05a0.77,0.77,0,0,0,.5-0.85,0.54,0.54,0,0,0-.6-0.54M27.3,370.75a0.82,0.82,0,0,0-.93-0.95h0a0.57,0.57,0,0,0-.49.23,0.91,0.91,0,0,0-.21.67,0.86,0.86,0,0,0,.8.95h0a0.86,0.86,0,0,0,.62-0.3,0.8,0.8,0,0,0,.21-0.6m2.41,18.75H29.65a0.48,0.48,0,0,0-.4.49c0,0.35.14,0.46,0.53,0.45h0a0.49,0.49,0,0,0,.39-0.23,0.47,0.47,0,0,0,0-.43,0.55,0.55,0,0,0-.5-0.29m19.15-29.68h0a1.1,1.1,0,0,0,.79-1.09,0.82,0.82,0,0,0-.82-0.84h0a0.76,0.76,0,0,0-.63,1,0.83,0.83,0,0,0,.68.95M60,370.76h0.06a0.78,0.78,0,0,0,.73-0.49,1.84,1.84,0,0,0,.19-1.53,1.08,1.08,0,0,0-.47-0.62A1,1,0,0,0,60,368a1.34,1.34,0,0,0-1.18,1.28,1.28,1.28,0,0,0,.27,1.07,1.07,1.07,0,0,0,.85.39M38,360.18h0a1.27,1.27,0,0,0,.81-0.48,1.6,1.6,0,0,0,.24-1,1,1,0,0,0-1.13-1.11h0a1.33,1.33,0,0,0-.8.44,2,2,0,0,0-.19,1.26,1,1,0,0,0,1,.88m-6.39,1.41h0.08a0.36,0.36,0,0,0,.25-0.36,0.48,0.48,0,0,0-.5-0.46h0a0.26,0.26,0,0,0-.16.09,0.43,0.43,0,0,0-.08.34,0.39,0.39,0,0,0,.42.4m0.28-1.44a0.81,0.81,0,0,0,.48.18l0.13,0a0.69,0.69,0,0,0,.55-0.66,0.81,0.81,0,0,0-.82-1.09,0.55,0.55,0,0,0-.52.4,1.15,1.15,0,0,0-.11.75,0.7,0.7,0,0,0,.29.45" transform="translate(-25.66 -357.59)"/></g></svg>