<svg id="レイヤー_1" data-name="レイヤー 1" xmlns="http://www.w3.org/2000/svg" viewBox="0 0 49.29 55.47"><title>8</title><g id="g420"><path id="path422" d="M118,373a0.59,0.59,0,0,0-.53.58,0.53,0.53,0,0,0,.74.36,0.54,0.54,0,0,0,.41-0.56A0.55,0.55,0,0,0,118,373m-1.4,1.44a0.89,0.89,0,0,0-1,.91,0.9,0.9,0,0,0,.87.76,1,1,0,0,0,1-.74,0.9,0.9,0,0,0-.87-0.93m10-11.09a0.75,0.75,0,0,0-1,.26,1.13,1.13,0,0,0,.18,1.36,0.81,0.81,0,0,0,.89.16,0.94,0.94,0,0,0,.5-1,1.1,1.1,0,0,0-.59-0.81m-2.26-6.94c-0.28-1.15-.36-2.43-1.66-3.46a5.06,5.06,0,0,0-4.28-.7,5.63,5.63,0,0,0-3.1,1.75,3.91,3.91,0,0,0-.83,3.57c0.36,1.73,1.54,1.81.93,2.32-0.46.38-1.08-.17-2.3-0.16a0.55,0.55,0,0,0,0-.47,0.85,0.85,0,0,0-1.17-.33,0.88,0.88,0,0,0-.48,1.15,4,4,0,0,0-2.37,2.38,3.76,3.76,0,0,0-.2.59,1.64,1.64,0,0,1-.27-1.14,1.45,1.45,0,0,1,.51-0.81,0.76,0.76,0,0,0,.38-0.76,0.64,0.64,0,0,0-.59-0.43,0.62,0.62,0,0,0-.43.19,1.15,1.15,0,0,0-.13.63,1.52,1.52,0,0,1-.43,1.19,1,1,0,0,1-.65.21,2.45,2.45,0,0,1-1.12-.41l-0.37-.19h0l-0.18-.09a4.33,4.33,0,0,0-1.4-.41,0.76,0.76,0,0,1-.76-0.31,1.23,1.23,0,0,1,.31-1.08c0.53-.66.59-1,0.22-1.31a0.66,0.66,0,0,0-.46-0.18,1.19,1.19,0,0,0-.76.34,1,1,0,0,0-.15.95,1.37,1.37,0,0,1-.18,1.13,1.35,1.35,0,0,1-1.07.35l-0.39,0a0.93,0.93,0,0,1-.72-0.34,1.33,1.33,0,0,1,0-1.1,1.74,1.74,0,0,0,.07-0.71,0.73,0.73,0,0,0-.69-0.57c-0.3,0-.45.08-0.55,0.52h0a1.65,1.65,0,0,0,.17.8l0.06,0.15,0.06,0.16a0.84,0.84,0,0,1,0,.79,1.09,1.09,0,0,1-.62.32h0l-0.2.05a2.92,2.92,0,0,1-.55.12,0.8,0.8,0,0,1-.92-1c0-.09,0-0.18,0-0.28a1.78,1.78,0,0,0-.34-1.14,1,1,0,0,0-.74-0.34,1,1,0,0,0-.73.31,1.34,1.34,0,0,0-.27,1.06,1.48,1.48,0,0,0,.49.9,1.2,1.2,0,0,1,.4.68c0.07,0.65-.61.89-1.15,1.08a3.52,3.52,0,0,0-.82.37,9,9,0,0,0-1.17,1,1.59,1.59,0,0,1-1,.66,0.91,0.91,0,0,1-.72-0.76,0.83,0.83,0,0,0-.78-0.62,1.4,1.4,0,0,0-.41.07,0.8,0.8,0,0,0-.47.51,0.82,0.82,0,0,0,.09.73,1.13,1.13,0,0,0,.44.29,1.1,1.1,0,0,1,.81,1.14,1.69,1.69,0,0,1-1.46,1.3,0.64,0.64,0,0,1-.52-0.24,1.17,1.17,0,0,0-.78-0.66,0.89,0.89,0,0,0-.23,0,0.68,0.68,0,0,0-.46.35,0.73,0.73,0,0,0,.09.64,0.53,0.53,0,0,0,.45.17,1,1,0,0,1,1,.68,0.78,0.78,0,0,1,0,.62,1,1,0,0,1-.71.39c-0.42.1-.59,0.18-0.62,0.51a0.57,0.57,0,0,0,.34.21,0.86,0.86,0,0,1,.67.69,1,1,0,0,1-.81.95,0.54,0.54,0,0,0-.38.24c0,0.07,0,.09.29,0.22a1.06,1.06,0,0,1,.69.59,0.67,0.67,0,0,1-.13.62,2.21,2.21,0,0,1-1.81.68,4.13,4.13,0,0,1-.55,0l-0.19,0a12.57,12.57,0,0,0-1.57-.14,2.7,2.7,0,0,0-1.51.38,0.91,0.91,0,0,0-.46.49,0.17,0.17,0,0,0,.1.12,1,1,0,0,0,.49.07,5.87,5.87,0,0,0,1.07-.12l0.47-.1a10.58,10.58,0,0,1,2.2-.31,4,4,0,0,1,1.13.15,1,1,0,0,1,.49,1.46,2.07,2.07,0,0,0-.06.27,1.21,1.21,0,0,0,1,1.19,1.4,1.4,0,0,1,.91.68,1.11,1.11,0,0,1-.11.9,1.34,1.34,0,0,1-.56.49,1.08,1.08,0,0,0-.48.42,0.36,0.36,0,0,0,.12.25,0.32,0.32,0,0,0,.24.07,3,3,0,0,0,.75-0.15,3.48,3.48,0,0,1,.52-0.12l0.33,0a0.78,0.78,0,0,1,.85.42c0.21,0.63-.88,1.61-1.83,2.32a9.73,9.73,0,0,1-.95.58c-0.88.51-2.95,1.7-2.76,2.29a0.44,0.44,0,0,0,.44.4,3.33,3.33,0,0,0,2-1.5,6.7,6.7,0,0,1,1.87-1.84,2.57,2.57,0,0,1,1.44-.62,1.45,1.45,0,0,1,.76.22,1.21,1.21,0,0,1,.65,1c0.06,1.07-1.32,2.17-1.48,2.29a2,2,0,0,0-.93,1.67,0.47,0.47,0,0,0,.51.43,0.83,0.83,0,0,0,.5-0.17,3,3,0,0,0,.77-1.29c0.35-.85.74-1.82,2-1.87h0.07c1.59,0,1.78,2,1.89,3.35L96.32,388a30.62,30.62,0,0,1,.2,3.81,10.4,10.4,0,0,1-.95,4.18c-0.12.24-.27,0.48-0.42,0.74-0.57,1-1.16,2-.73,2.89a3.21,3.21,0,0,0,.31.5,2,2,0,0,1,.45,1.17A5.72,5.72,0,0,1,95,403c0,0.19-.08.39-0.12,0.58-0.32,1.82-.2,3,0.37,3.55a1.21,1.21,0,0,0,.83.37A2.75,2.75,0,0,0,98,406c1.14-2,.64-5.14.28-7.47h0l-0.09-.59a36.52,36.52,0,0,1-.38-8.49,12,12,0,0,1,.69-3.79,1.4,1.4,0,0,1,1.17-1.15,1.46,1.46,0,0,1,.42.07,0.58,0.58,0,0,1,.42.56,1.25,1.25,0,0,0,.72,1c1.39,0.81,1.66,1.4,1.36,3-0.27,1.44-.77,4.12.11,5.3a1.14,1.14,0,0,0,.94.51h0.07a0.77,0.77,0,0,0,.55-0.34c0.61-.72.26-5.77,0-7.28-0.09-.55-0.17-1-0.19-1.35a1.43,1.43,0,0,1,.62-1.53,2.62,2.62,0,0,0,.33-0.29,2.29,2.29,0,0,0,.31-0.59,1.28,1.28,0,0,1,.84-1,1.1,1.1,0,0,1,.44.11,1.29,1.29,0,0,1,.73,1.06,1.61,1.61,0,0,0,.23.61,0.87,0.87,0,0,0,.42.3,0.92,0.92,0,0,1,.59,1.12c0,0.45,0,.88-0.07,1.25a3.12,3.12,0,0,0,.14,1.86,0.71,0.71,0,0,0,.59.26h0.15a0.73,0.73,0,0,0,.59-0.37c0.5-.87-0.14-3-0.52-3.82-0.6-1.36-.77-3-0.36-3.58a0.61,0.61,0,0,1,.51-0.3c0.44,0,.9.48,1.42,1.48a0.36,0.36,0,0,0,.29.22,0.46,0.46,0,0,0,.39-0.29,0.77,0.77,0,0,0-.26-0.82,2.07,2.07,0,0,1-.76-1.47,1.37,1.37,0,0,1,.53-1h0a0.83,0.83,0,0,1,.52-0.2,1.28,1.28,0,0,1,.8.4,1.06,1.06,0,0,0,.59.33,0.53,0.53,0,0,0,.24-0.06,0.74,0.74,0,0,0,.4-0.66,1.19,1.19,0,0,0-1-.8,0.47,0.47,0,0,1-.33-0.28,0.9,0.9,0,0,1,.22-0.76,3.25,3.25,0,0,0,.54-2.16,0.82,0.82,0,0,1,.15-0.65l0,0a0.66,0.66,0,0,1,.47-0.29,3.67,3.67,0,0,1,.67.09,1.29,1.29,0,0,1,.3.12,0.8,0.8,0,0,0,.33.11,0.53,0.53,0,0,0,.47-0.19,0.29,0.29,0,0,0,.06-0.36,0.76,0.76,0,0,0-.83-0.36h-0.09a1,1,0,0,1-1.11-.53,3.32,3.32,0,0,1,.24-2.23,1.32,1.32,0,0,1,1.25-.77h0.16a1,1,0,0,0,1.09-.55s0,0,0,0a5,5,0,0,0,1-.46c0.91-.59.19,1.47,1.49,1.42a1.87,1.87,0,0,0,1.92-1.82c-0.15-1.19-1.79-.15-1.19-1.4a4.19,4.19,0,0,0,.5-2.49c-0.17-1.62-.95-2-0.36-2.65s1.6,0.79,3.19-1c1.14-1.29,1,1.75,3.17.88a3.37,3.37,0,0,0,1.58-4.85c-1.4-2.16-3.08.68-3.36-.47m6.24,7.6a1.11,1.11,0,0,0-.75-0.86,1.28,1.28,0,0,0-1.39.37,1.05,1.05,0,0,0,.15,1.51,1.29,1.29,0,0,0,1.23.11,1.19,1.19,0,0,0,.76-1.13M84,369.82a1.29,1.29,0,0,0-1.25-1.34,1.27,1.27,0,0,0-1.49,1.31,1.29,1.29,0,0,0,1.26,1.1A1.44,1.44,0,0,0,84,369.82m26.61-15.08a0.54,0.54,0,0,0,.35-0.51,0.51,0.51,0,0,0-.34-0.39,0.59,0.59,0,0,0-.63.17,0.48,0.48,0,0,0,.07.69,0.58,0.58,0,0,0,.56,0m-16.87,3.31a1.29,1.29,0,0,0,.28-1.82,1.28,1.28,0,0,0-2-.36,1.3,1.3,0,0,0-.07,1.67,1.44,1.44,0,0,0,1.75.5m16.38,0.67a1.1,1.1,0,0,0,1-.89,1.14,1.14,0,0,0-.79-1.11,1.37,1.37,0,0,0-1.2.22,0.91,0.91,0,0,0-.14,1.25,1.16,1.16,0,0,0,1.12.54M86.5,364.32a0.79,0.79,0,0,0-.7-1.42,0.76,0.76,0,0,0-.27,1.16,0.77,0.77,0,0,0,1,.26M85.85,366a0.54,0.54,0,0,0,.57-0.39,0.55,0.55,0,0,0-.46-0.57,0.59,0.59,0,0,0-.68.38,0.53,0.53,0,0,0,.57.59" transform="translate(-81.27 -352.03)"/></g></svg>