<svg id="レイヤー_1" data-name="レイヤー 1" xmlns="http://www.w3.org/2000/svg" viewBox="0 0 54.12 44.34"><title>9</title><g id="g404"><path id="path406" d="M185.68,398.26a0.69,0.69,0,0,0-.72.33,0.63,0.63,0,0,0,.11.66,0.75,0.75,0,0,0,.8.24,0.62,0.62,0,0,0,.38-0.8,0.76,0.76,0,0,0-.58-0.43m-40.55-8.76h-0.06a0.47,0.47,0,0,0-.4.49c0,0.35.13,0.46,0.52,0.45h0a0.48,0.48,0,0,0,.39-0.23,0.47,0.47,0,0,0,0-.43,0.53,0.53,0,0,0-.5-0.29m49.75-6.11c-1.29-4.07-5.84-5.09-7.23-5.05s0.77-1.74-.69-2.56a2.4,2.4,0,0,0-3.33.72c-0.63,1.4,1.85,1.36.38,2.34a5.45,5.45,0,0,0-2.21,2.41c-0.89,1.9-.28,2.83-1.37,3.16s-1.23-1.93-4.2-1c-2.1.66,0.08-2.58-2.9-3.08l-0.2,0a0.54,0.54,0,0,0-.14-0.22,0.65,0.65,0,0,0-.5-0.15,3.11,3.11,0,0,0-.43.07,2.57,2.57,0,0,1-.42.06h-0.16a0.76,0.76,0,0,1-.58-0.89,1.17,1.17,0,0,1,1-1.21h0.06a8.7,8.7,0,0,1,2.72.7,1.82,1.82,0,0,0,.85.24,0.54,0.54,0,0,0,.51-0.38,0.3,0.3,0,0,0,0-.3,1.72,1.72,0,0,0-1.27-.46l-1.51-.09-1-.06a0.64,0.64,0,0,1-.57-0.68,0.56,0.56,0,0,1,.51-0.62,0.73,0.73,0,0,1,.22,0l0.56,0.16a5.66,5.66,0,0,0,1.48.31,0.53,0.53,0,0,0,.44-0.21,0.51,0.51,0,0,0,.11-0.53,0.52,0.52,0,0,0-.5-0.21,0.33,0.33,0,0,1-.36-0.23c0-.12,0-0.36.6-0.56a2.76,2.76,0,0,1,.8-0.15,5.77,5.77,0,0,1,1,.06,5.64,5.64,0,0,0,1,.06,2.7,2.7,0,0,0,.7-0.12,1,1,0,0,0,.72-1.27,1.49,1.49,0,0,0-1.57-.92,1.88,1.88,0,0,0-.55.11,15.61,15.61,0,0,0-2.59,1.43c-0.42.27-.83,0.52-1.12,0.69a1.28,1.28,0,0,1-.54.17,0.47,0.47,0,0,1-.53-0.46,0.46,0.46,0,0,1,.4-0.51h0.16a0.84,0.84,0,0,0,.82-0.41,0.47,0.47,0,0,0-.1-0.49,0.33,0.33,0,0,0-.26-0.12,1.08,1.08,0,0,0-.45.19,1.23,1.23,0,0,1-.53.21,0.59,0.59,0,0,1-.54-0.37,1.21,1.21,0,0,1,0-1.07,0.72,0.72,0,0,1,.59-0.39,1.79,1.79,0,0,0,1.38-.54,0.46,0.46,0,0,0,0-.45,0.16,0.16,0,0,0-.17-0.11,2.41,2.41,0,0,0-.88.45,6.18,6.18,0,0,1-.62.38,0.88,0.88,0,0,1-.35.1,1.45,1.45,0,0,1-1.11-.8l0,0a1.6,1.6,0,0,1-.29-1.29,0.82,0.82,0,0,1,.59-0.51c0.93-.27,1.22-0.76,1.19-1.14a0.79,0.79,0,0,0-.78-0.66h-0.14a1.3,1.3,0,0,0-1,.93l0,0.08a0.62,0.62,0,0,1-.52.4,0.67,0.67,0,0,1-.48-0.2,0.94,0.94,0,0,1-.3-0.63,1.39,1.39,0,0,1,.88-1.32,2,2,0,0,0,1.31-1.33,0.38,0.38,0,0,0-.29-0.33,0.59,0.59,0,0,0-.25,0A2.15,2.15,0,0,0,168.8,366a1.12,1.12,0,0,1-.79.65,0.63,0.63,0,0,1-.27,0,0.77,0.77,0,0,1-.44-0.58,1.21,1.21,0,0,1,.46-1.12,3.33,3.33,0,0,0,1.2-2.53,1.56,1.56,0,0,0-.67-1.22,1.54,1.54,0,0,0-.92-0.34c-0.84,0-1.23,1.31-1.46,2.06s-0.48,1.25-1,1.27a1.18,1.18,0,0,1-.4-0.06,1.22,1.22,0,0,1-.63-1.54c0-.12,0-0.23.05-0.33,0.09-.51.09-0.64-0.09-0.7h-0.07a1,1,0,0,0-.36,1,1,1,0,0,1-1.07.93,2.06,2.06,0,0,1-.54,0,1.35,1.35,0,0,1-1.23-1.42,0.81,0.81,0,0,0-.22-0.58,0.63,0.63,0,0,0-.45-0.15,0.73,0.73,0,0,0-.53.26,0.59,0.59,0,0,0-.11.48,1.11,1.11,0,0,1-.22.9,1.13,1.13,0,0,1-.87.41,2.22,2.22,0,0,1-.68-0.09c-1.21-.34-1.35-1.52-1.32-2.62a0.57,0.57,0,0,0-.15-0.45,0.39,0.39,0,0,0-.3-0.11,0.4,0.4,0,0,0-.32.18,0.7,0.7,0,0,0,0,.65l0,0.1c0.36,0.77.86,1.83,0.52,2.46a1.36,1.36,0,0,1-2.25.13,1,1,0,0,0-.74-0.36,0.35,0.35,0,0,0-.29.14,0.74,0.74,0,0,0,0,.62l0,0.06c0.16,0.55.31,1-.18,1.32a0.72,0.72,0,0,1-.34.11c-0.75,0-1.34-1.2-2.17-3.1a1.2,1.2,0,0,0-.82-0.89,0.37,0.37,0,0,0-.32.3,0.87,0.87,0,0,0,.37.93,7.46,7.46,0,0,1,2.14,3.18,1,1,0,0,1-.23.73,1.3,1.3,0,0,1-.89.41,0.77,0.77,0,0,1-.47-0.11,1.82,1.82,0,0,1-.49-0.55,0.85,0.85,0,0,0-.57-0.47l-0.23,0a0.5,0.5,0,0,0-.4.18,0.46,0.46,0,0,0,0,.39,0.93,0.93,0,0,0,.62.59,1.44,1.44,0,0,1,.74.62,0.66,0.66,0,0,1,0,.65,0.62,0.62,0,0,1-.52.31,0.84,0.84,0,0,1-.26,0,8.38,8.38,0,0,1-3.4-2.17,0.36,0.36,0,0,0-.33-0.16,0.46,0.46,0,0,0-.09.91l0.56,0.25c1,0.43,2.65,1.15,3,2.09a0.73,0.73,0,0,1-.05.67,0.76,0.76,0,0,1-.6.29,1.08,1.08,0,0,1-.36,0,2.46,2.46,0,0,1-.77-0.49,1.69,1.69,0,0,0-.9-0.5,0.44,0.44,0,0,0-.34.21,0.36,0.36,0,0,0-.06.38,2.65,2.65,0,0,0,1.81.92,0.44,0.44,0,0,1,.46.44,0.49,0.49,0,0,1-.46.46,0.46,0.46,0,0,1-.29-0.09,1.05,1.05,0,0,0-.6-0.21,0.36,0.36,0,0,0-.37.32,0.52,0.52,0,0,0,.55.45,0.68,0.68,0,0,1,.6.45,1.36,1.36,0,0,1-.33,1.2,1.52,1.52,0,0,1-1.07.48,3.33,3.33,0,0,1-1.56-.39,1.84,1.84,0,0,0-.88-0.21,1.15,1.15,0,0,0-.8.38,1.57,1.57,0,0,0-.38,1.11,1.39,1.39,0,0,0,1.54,1.34,2.89,2.89,0,0,0,.78-0.15,5.79,5.79,0,0,1,1.48-.3,1.4,1.4,0,0,1,1.15.32,0.55,0.55,0,0,1,.12.49c-0.09.39-.53,0.6-1.32,0.64-0.22,0-.43,0-0.57,0h-0.16c-0.36,0-.57.15-0.55,0.38a0.67,0.67,0,0,0,.68.58,0.59,0.59,0,0,0,.25-0.06,4,4,0,0,1,1.34-.47,0.63,0.63,0,0,1,.51.17,2.06,2.06,0,0,1,.38,1.55,0.89,0.89,0,0,1-.52.68,5.47,5.47,0,0,1-1.28.33,9.81,9.81,0,0,0-1.38.32,0.88,0.88,0,0,0-.67,1,0.7,0.7,0,0,0,.79.57l0.16,0a4.57,4.57,0,0,0,1.48-.48,3.52,3.52,0,0,1,1-.39l0.18,0a1.14,1.14,0,0,1,1,.41,1.78,1.78,0,0,1,.33,1c0,0.89-.89,2-2,2.82a1.71,1.71,0,0,0-1,1.29,0.42,0.42,0,0,0,.28.39l0.15,0a1.19,1.19,0,0,0,.82-0.56c0.08-.1.15-0.26,0.23-0.36l0.07-.08a2.54,2.54,0,0,1,1.27-1,0.31,0.31,0,0,1,.26.08,0.74,0.74,0,0,1,0,.48,5.3,5.3,0,0,0,0,.65,1.21,1.21,0,0,1,0,1l-0.15.16a1.88,1.88,0,0,0-.73,1.44,0.37,0.37,0,0,0,.17.29h0.05a1.37,1.37,0,0,0,.61-0.6c1.1-1.28,2.27,1,2.54,5.06,0.45,6.73,5.43,7,6.07,2.77,0.52-3.42,2.63-6.44,3.23,2.94,0.2,3.07,3.76,2.7,3.91-1.35,0.07-1.77.09-3.76,1.27-3.82s1.25-4.39,1.27-4.66c0-.67.62-1,0.9-0.51a2.46,2.46,0,0,0,.35.49,0.38,0.38,0,0,0,.29.13,0.44,0.44,0,0,0,.36-0.25,0.56,0.56,0,0,0,0-.58,6.06,6.06,0,0,0-.57-0.71,0.75,0.75,0,0,1-.13-0.83,1.5,1.5,0,0,1,.93-0.62,0.55,0.55,0,0,0,.33-0.18,0.68,0.68,0,0,0,.2-0.43c1.05,0.27,2.28-.1,2,0.77A8.78,8.78,0,0,0,171,391a0.73,0.73,0,0,0-.49-0.15h0a0.76,0.76,0,0,0-.63,1,0.83,0.83,0,0,0,.68.95h0a1,1,0,0,0,.7-0.63l0,0.12a6.52,6.52,0,0,0,4.25,3.62,7.26,7.26,0,0,0,4.58.14,5,5,0,0,0,3.28-3.37c0.76-2.15-.48-3,0.52-3.18s1.25,1.72,4.18,2.38a5.21,5.21,0,0,0,4.51-1,6.88,6.88,0,0,0,2.29-7.5m-6,10.81a1.43,1.43,0,0,0-1.69.31,1.47,1.47,0,0,0,.12,1.75,1.76,1.76,0,0,0,1.46.56,1.17,1.17,0,0,0,1-1.28,1.5,1.5,0,0,0-.87-1.34m-10.62-15.88h0a0.72,0.72,0,0,0-.58.87,0.58,0.58,0,0,0,.66.52h0.05a0.78,0.78,0,0,0,.5-0.85,0.55,0.55,0,0,0-.61-0.54M144.2,391.66a0.71,0.71,0,0,0-.67.34,1.24,1.24,0,0,0-.17.9,0.74,0.74,0,0,0,.31.51,1,1,0,0,0,.69.28,0.66,0.66,0,0,0,.46-0.22,1.12,1.12,0,0,0,.26-1.34,0.87,0.87,0,0,0-.87-0.48m31.21-20.9h0.06a0.78,0.78,0,0,0,.73-0.49,1.86,1.86,0,0,0,.19-1.53,1.07,1.07,0,0,0-.47-0.62,1,1,0,0,0-.46-0.09,1.34,1.34,0,0,0-1.19,1.28,1.3,1.3,0,0,0,.28,1.07,1.07,1.07,0,0,0,.86.39m-32.69,0a0.82,0.82,0,0,0-.93-0.95h0a0.57,0.57,0,0,0-.49.23,0.88,0.88,0,0,0-.2.67,0.85,0.85,0,0,0,.79.95h0a0.91,0.91,0,0,0,.64-0.3,0.81,0.81,0,0,0,.2-0.6m10.65-10.57h0a1.27,1.27,0,0,0,.8-0.48,1.58,1.58,0,0,0,.24-1,1,1,0,0,0-1.12-1.11h0a1.33,1.33,0,0,0-.8.44,2,2,0,0,0-.19,1.26,1,1,0,0,0,1,.88m10.91-.36h0a1.11,1.11,0,0,0,.79-1.09,0.83,0.83,0,0,0-.83-0.84h0a0.76,0.76,0,0,0-.63,1,0.83,0.83,0,0,0,.68.95M147,361.6h0.08a0.36,0.36,0,0,0,.25-0.36,0.48,0.48,0,0,0-.5-0.47h0a0.25,0.25,0,0,0-.16.09,0.45,0.45,0,0,0-.08.34,0.39,0.39,0,0,0,.41.4m0.28-1.44a0.83,0.83,0,0,0,.48.18l0.14,0a0.69,0.69,0,0,0,.55-0.66,1,1,0,0,0-.45-1,1,1,0,0,0-.37-0.06,0.56,0.56,0,0,0-.52.4,1.13,1.13,0,0,0-.1.75,0.7,0.7,0,0,0,.28.45" transform="translate(-141.08 -357.59)"/></g></svg>